<svg xmlns="http://www.w3.org/2000/svg" xmlns:xlink="http://www.w3.org/1999/xlink" width="470.063" height="391.588" viewBox="0 0 470.063 391.588">
  <defs>
    <linearGradient id="linear-gradient" x1="0.488" y1="-0.522" x2="1.486" y2="-0.522" gradientUnits="objectBoundingBox">
      <stop offset="0" stop-color="gray" stop-opacity="0.251"/>
      <stop offset="0.54" stop-color="gray" stop-opacity="0.122"/>
      <stop offset="1" stop-color="gray" stop-opacity="0.102"/>
    </linearGradient>
  </defs>
  <g id="Group_6" data-name="Group 6" transform="translate(-59)">
    <path id="Path_113" data-name="Path 113" d="M234.534,63.2c-24.163-.859-47.205-8.627-69.165-17.179s-43.769-18-67.335-22.52c-15.162-2.913-32.528-3.324-44.74,4.818C41.53,36.16,37.721,49.641,35.667,62.19c-1.531,9.449-2.427,19.345,1.793,28.2,2.913,6.125,8.1,11.278,11.727,17.179,12.511,20.428,3.66,45.637-9.9,65.579-6.349,9.374-13.706,18.3-18.636,28.271s-7.17,21.4-2.876,31.557c4.257,10.083,14.378,17.627,25.358,22.968,22.3,10.83,48.55,13.893,74.169,15.648,56.691,3.884,113.718,2.2,170.559.523,21.026-.635,42.163-1.27,62.853-4.519,11.5-1.793,23.379-4.668,31.707-11.577,10.606-8.776,13.22-23.677,6.125-34.694-11.913-18.486-44.815-23.08-53.143-42.91-4.593-10.905.112-23.08,6.8-33.2,14.266-21.735,38.2-40.782,39.475-65.617.859-17.067-10.644-34.134-28.42-42.2C334.621,28.952,308.74,30,295,44,280.768,58.38,255.858,63.945,234.534,63.2Z" transform="translate(74.375 4.149)" fill="#38d39f" opacity="0.1"/>
    <g id="abffebd3-2ac6-4c6b-a0d4-e62621854ed7_1_" transform="translate(138.886 43.098)" opacity="0.6">
      <path id="Path_114" data-name="Path 114" d="M198.587,189.3s-14.31-25.342-35.854-32.628a44.132,44.132,0,0,1-22.324-16.7A77.625,77.625,0,0,1,133.8,128.1" transform="translate(-118.384 -88.322)" fill="none" stroke="#535461" stroke-miterlimit="10" stroke-width="2"/>
      <path id="Path_115" data-name="Path 115" d="M106.113,109.208c2.446,2.394,13.894,4.84,13.894,4.84s-2.81-11.344-5.256-13.738a6.182,6.182,0,1,0-8.742,8.742c0,.052.052.1.1.156Z" transform="translate(-104.175 -74.113)" fill="#38d39f"/>
      <path id="Path_116" data-name="Path 116" d="M115.71,147.264c3.33.676,14.31-3.486,14.31-3.486s-8.534-8.014-11.865-8.69a6.2,6.2,0,0,0-7.285,4.892,6.1,6.1,0,0,0,4.84,7.285Z" transform="translate(-107.319 -91.614)" fill="#38d39f"/>
      <path id="Path_117" data-name="Path 117" d="M157.906,190.261c3.226-1.093,10.564-10.2,10.564-10.2s-11.4-2.6-14.623-1.509a6.2,6.2,0,1,0,4.059,11.708Z" transform="translate(-125.994 -112.392)" fill="#38d39f"/>
      <path id="Path_118" data-name="Path 118" d="M200.4,214.59c3.382-.572,12.177-8.274,12.177-8.274s-10.772-4.475-14.154-3.955A6.194,6.194,0,0,0,200.4,214.59Z" transform="translate(-146.888 -123.919)" fill="#38d39f"/>
      <path id="Path_119" data-name="Path 119" d="M154.685,129.192c0,3.435-6.192,13.322-6.192,13.322s-6.193-9.887-6.193-13.322a6.193,6.193,0,0,1,12.385,0Z" transform="translate(-122.461 -85.876)" fill="#38d39f"/>
      <path id="Path_120" data-name="Path 120" d="M203.208,156.884c-1.041,3.278-9.887,10.876-9.887,10.876s-2.966-11.344-1.925-14.571a6.188,6.188,0,0,1,11.813,3.695Z" transform="translate(-145.902 -98.268)" fill="#38d39f"/>
      <path id="Path_121" data-name="Path 121" d="M245.851,192.819c-.468,3.382-7.91,12.385-7.91,12.385s-4.839-10.668-4.371-14.05a6.2,6.2,0,1,1,12.281,1.665Z" transform="translate(-166.221 -115.99)" fill="#38d39f"/>
      <path id="Path_122" data-name="Path 122" d="M106.113,109.208c2.446,2.394,13.894,4.84,13.894,4.84s-2.81-11.344-5.256-13.738a6.182,6.182,0,1,0-8.742,8.742c0,.052.052.1.1.156Z" transform="translate(-104.175 -74.113)" opacity="0.25"/>
      <path id="Path_123" data-name="Path 123" d="M115.71,147.264c3.33.676,14.31-3.486,14.31-3.486s-8.534-8.014-11.865-8.69a6.2,6.2,0,0,0-7.285,4.892,6.1,6.1,0,0,0,4.84,7.285Z" transform="translate(-107.319 -91.614)" opacity="0.25"/>
      <path id="Path_124" data-name="Path 124" d="M157.906,190.261c3.226-1.093,10.564-10.2,10.564-10.2s-11.4-2.6-14.623-1.509a6.2,6.2,0,1,0,4.059,11.708Z" transform="translate(-125.994 -112.392)" opacity="0.25"/>
      <path id="Path_125" data-name="Path 125" d="M200.4,214.59c3.382-.572,12.177-8.274,12.177-8.274s-10.772-4.475-14.154-3.955A6.194,6.194,0,0,0,200.4,214.59Z" transform="translate(-146.888 -123.919)" opacity="0.25"/>
      <path id="Path_126" data-name="Path 126" d="M154.685,129.192c0,3.435-6.192,13.322-6.192,13.322s-6.193-9.887-6.193-13.322a6.193,6.193,0,0,1,12.385,0Z" transform="translate(-122.461 -85.876)" opacity="0.25"/>
      <path id="Path_127" data-name="Path 127" d="M203.208,156.884c-1.041,3.278-9.887,10.876-9.887,10.876s-2.966-11.344-1.925-14.571a6.188,6.188,0,0,1,11.813,3.695Z" transform="translate(-145.902 -98.268)" opacity="0.25"/>
      <path id="Path_128" data-name="Path 128" d="M245.851,192.819c-.468,3.382-7.91,12.385-7.91,12.385s-4.839-10.668-4.371-14.05a6.2,6.2,0,1,1,12.281,1.665Z" transform="translate(-166.221 -115.99)" opacity="0.25"/>
      <path id="Path_129" data-name="Path 129" d="M225.049,169.068s-2.81-28.985-19.566-44.388a43.705,43.705,0,0,1-13.634-24.3A73.4,73.4,0,0,1,190.6,86.9" transform="translate(-145.626 -68.561)" fill="none" stroke="#535461" stroke-miterlimit="10" stroke-width="2"/>
      <path id="Path_130" data-name="Path 130" d="M170.077,60.162c1.3,3.174,10.72,10.043,10.72,10.043s2.029-11.5.781-14.675a6.2,6.2,0,1,0-11.5,4.631Z" transform="translate(-135.563 -51.659)" fill="#38d39f"/>
      <path id="Path_131" data-name="Path 131" d="M163.464,98.8c2.81,1.977,14.466,2.6,14.466,2.6s-4.527-10.772-7.337-12.749A6.2,6.2,0,0,0,163.464,98.8Z" transform="translate(-131.344 -68.859)" fill="#38d39f"/>
      <path id="Path_132" data-name="Path 132" d="M184.655,155.109c3.382.26,13.79-5.048,13.79-5.048s-9.367-6.973-12.749-7.285a6.188,6.188,0,1,0-1.041,12.333Z" transform="translate(-140.046 -95.348)" fill="#38d39f"/>
      <path id="Path_133" data-name="Path 133" d="M213.361,194.551c3.33.833,14.466-2.654,14.466-2.654s-8.066-8.482-11.344-9.367a6.188,6.188,0,1,0-3.695,11.813,3.951,3.951,0,0,1,.572.208Z" transform="translate(-154.182 -114.287)" fill="#38d39f"/>
      <path id="Path_134" data-name="Path 134" d="M206.325,97.948c-1.405,3.122-11.084,9.679-11.084,9.679s-1.665-11.552-.26-14.727a6.208,6.208,0,1,1,11.344,5.048Z" transform="translate(-147.457 -69.67)" fill="#38d39f"/>
      <path id="Path_135" data-name="Path 135" d="M237.078,142.939c-2.238,2.55-13.478,5.932-13.478,5.932s1.873-11.552,4.163-14.1a6.195,6.195,0,1,1,9.315,8.17Z" transform="translate(-161.454 -90.515)" fill="#38d39f"/>
      <path id="Path_136" data-name="Path 136" d="M263.228,193.075c-1.769,2.914-12.229,8.118-12.229,8.118s-.1-11.708,1.717-14.623a6.181,6.181,0,1,1,10.512,6.5Z" transform="translate(-174.595 -114.945)" fill="#38d39f"/>
    </g>
    <path id="Path_140" data-name="Path 140" d="M169.4,370.9" transform="translate(-101.978 -177.892)" fill="#fff" stroke="#33313f" stroke-miterlimit="10" stroke-width="3"/>
    <path id="Path_142" data-name="Path 142" d="M416.153,164.408s73.373-3.643,86.9,0c0,0-5.724,128.013-3.643,132.176,0,0-93.772,7.337-91.066,0C414.071,280.972,416.153,164.408,416.153,164.408Z" transform="translate(-216.555 -78.077)" fill="#fff" stroke="#33313f" stroke-miterlimit="10" stroke-width="1"/>
    <path id="Path_143" data-name="Path 143" d="M478.3,184.6s16.34,25.967,21.856,28.361" transform="translate(-250.133 -88.538)" fill="#fff" stroke="#33313f" stroke-miterlimit="10" stroke-width="1"/>
    <path id="Path_144" data-name="Path 144" d="M503.7,184.6S488.094,205,485.7,211.972" transform="translate(-253.683 -88.538)" fill="#fff" stroke="#33313f" stroke-miterlimit="10" stroke-width="1"/>
    <path id="Path_145" data-name="Path 145" d="M501.423,270.9h-55.16c-4.163,0-4.163,14.57-4.163,14.57h59.323Z" transform="translate(-232.771 -129.93)" fill="#fff" stroke="#33313f" stroke-miterlimit="10" stroke-width="1"/>
    <path id="Path_146" data-name="Path 146" d="M500.832,359.9h-41.11c-3.122,0-3.122,14.57-3.122,14.57h44.232Z" transform="translate(-239.726 -172.616)" fill="#fff" stroke="#33313f" stroke-miterlimit="10" stroke-width="1"/>
    <path id="Path_147" data-name="Path 147" d="M501.423,311.678c4.163,0-50.268,4.683-55.16,0-2.55-2.446-4.163,14.571-4.163,14.571h59.323Z" transform="translate(-232.771 -149.373)" fill="#fff" stroke="#33313f" stroke-miterlimit="10" stroke-width="1"/>
    <path id="Path_148" data-name="Path 148" d="M488.9,369.083l3.122,3.122,5.724-7.806" transform="translate(-255.217 -174.775)" fill="#fff" stroke="#33313f" stroke-miterlimit="10" stroke-width="1"/>
    <path id="Path_149" data-name="Path 149" d="M684.988,167.9s72.853,8.846,86.9,0c0,0-5.724,128.013-3.643,132.176,0,0-96.686,5.412-91.066,0C691.233,286.546,684.988,167.9,684.988,167.9Z" transform="translate(-345.409 -80.529)" fill="#fff" stroke="#33313f" stroke-miterlimit="10" stroke-width="1"/>
    <path id="Path_150" data-name="Path 150" d="M711.8,211.4s10.511,16.652,14.05,18.213" transform="translate(-362.126 -101.392)" fill="#fff" stroke="#33313f" stroke-miterlimit="10" stroke-width="3"/>
    <path id="Path_151" data-name="Path 151" d="M728.152,211.4s-10.043,13.166-11.552,17.589" transform="translate(-364.428 -101.392)" fill="#fff" stroke="#33313f" stroke-miterlimit="10" stroke-width="3"/>
    <path id="Path_152" data-name="Path 152" d="M772.423,277.4h-55.16c-4.163,0-4.163,7.7-4.163,7.7h59.323Z" transform="translate(-362.749 -133.047)" fill="#fff" stroke="#33313f" stroke-miterlimit="10" stroke-width="1"/>
    <path id="Path_153" data-name="Path 153" d="M769.3,321.4h28.725c4.163,0,4.163,7.7,4.163,7.7h.1" transform="translate(-389.704 -154.151)" fill="#fff" stroke="#33313f" stroke-miterlimit="10" stroke-width="3"/>
    <path id="Path_154" data-name="Path 154" d="M772.423,298.882c4.163,0-50.268,2.5-55.16,0-2.55-1.3-4.163,7.7-4.163,7.7h59.323Z" transform="translate(-362.749 -143.289)" fill="#fff" stroke="#33313f" stroke-miterlimit="10" stroke-width="1"/>
    <path id="Path_155" data-name="Path 155" d="M693.2,186.6s80.762,5.984,85.966,2.029" transform="translate(-353.204 -89.498)" fill="#fff" stroke="#33313f" stroke-miterlimit="10" stroke-width="1"/>
    <path id="Path_156" data-name="Path 156" d="M838.8,179.164a9.407,9.407,0,0,1,3.383.26,3.858,3.858,0,0,0,3.226-.624" transform="translate(-423.038 -85.757)" fill="#fff" stroke="#33313f" stroke-miterlimit="10" stroke-width="1"/>
    <path id="Path_157" data-name="Path 157" d="M837.8,183.5a32.159,32.159,0,0,0,7.077.416" transform="translate(-422.558 -88.011)" fill="#fff" stroke="#33313f" stroke-miterlimit="10" stroke-width="1"/>
    <path id="Path_158" data-name="Path 158" d="M837.8,188.476a46.571,46.571,0,0,1,6.036-.676" transform="translate(-422.558 -90.073)" fill="#fff" stroke="#33313f" stroke-miterlimit="10" stroke-width="1"/>
    <path id="Path_159" data-name="Path 159" d="M700.553,177.413a6.468,6.468,0,0,0,3.122.624,2.787,2.787,0,0,0,1.926-.416,3.079,3.079,0,0,0,.728-2.446,2.023,2.023,0,0,0-.1-.781,1.512,1.512,0,0,0-.572-.572,6.513,6.513,0,0,0-5.2-.677C698.472,173.979,698.784,176.476,700.553,177.413Z" transform="translate(-356.031 -82.913)" fill="#fff" stroke="#33313f" stroke-miterlimit="10" stroke-width="1"/>
    <path id="Path_160" data-name="Path 160" d="M725.48,205.1c-.312,3.851.624,7.7,1.249,11.5a75.943,75.943,0,0,1,.937,14.571c-8.222.52-16.444.624-24.666.364.781,0,.572-17.381.624-18.994.1-2.029-.364-5.568,2.029-6.349,2.5-.833,6.036-.312,8.638-.416C717.987,205.568,721.733,205.36,725.48,205.1Z" transform="translate(-357.905 -98.371)" fill="#fff" stroke="#33313f" stroke-miterlimit="10" stroke-width="1"/>
    <path id="Path_163" data-name="Path 163" d="M607.4,280.474s20.295-1.041,23.937,0" transform="translate(-312.053 -134.3)" fill="none" stroke="#33313f" stroke-miterlimit="10" stroke-width="1"/>
    <path id="Path_164" data-name="Path 164" d="M651,259.9s8.847,8.846,8.847,10.928-11.448,9.367-11.448,9.367" transform="translate(-331.717 -124.654)" fill="none" stroke="#33313f" stroke-miterlimit="10" stroke-width="1"/>
    <circle id="Ellipse_47" data-name="Ellipse 47" cx="11.24" cy="11.24" r="11.24" transform="translate(164.368 0)" fill="#38d39f" opacity="0.1"/>
    <circle id="Ellipse_48" data-name="Ellipse 48" cx="11.24" cy="11.24" r="11.24" transform="translate(335.624 15.559)" fill="#38d39f" opacity="0.1"/>
    <circle id="Ellipse_49" data-name="Ellipse 49" cx="11.24" cy="11.24" r="11.24" transform="translate(455.935 182.288)" fill="#38d39f" opacity="0.1"/>
    <ellipse id="Ellipse_50" data-name="Ellipse 50" cx="18.89" cy="18.838" rx="18.89" ry="18.838" transform="translate(485.821 158.962) rotate(-80.782)" fill="#38d39f" opacity="0.1"/>
    <circle id="Ellipse_51" data-name="Ellipse 51" cx="18.89" cy="18.89" r="18.89" transform="translate(448.72 26.819)" fill="#38d39f" opacity="0.1"/>
    <circle id="Ellipse_52" data-name="Ellipse 52" cx="18.89" cy="18.89" r="18.89" transform="translate(59 150.293)" fill="#38d39f" opacity="0.1"/>
    <path id="Path_165" data-name="Path 165" d="M818.652,359.427a10.042,10.042,0,0,0-.338-2.43c-.608-2.295-1.958-5.062-4.252-5.737a38.962,38.962,0,0,1-6.682-2.835c-.4-7.222,1.283-14.647-.54-21.666-.675-2.565-1.755-4.995-2.092-7.627-.338-3.24.54-6.75-.81-9.787a9.684,9.684,0,0,0-5.737-4.927,32.284,32.284,0,0,0-7.627-1.35c-3.24-.27-13.7-1.485-17.414,1.417h0a3.208,3.208,0,0,0-.675.675h0c-.068.135-.135.2-.2.337v.067l-.2.405h0c-.068.135-.068.337-.135.472v1.215a16.607,16.607,0,0,1,.135,1.822,3.828,3.828,0,0,1-.068.877,5.149,5.149,0,0,1-1.147,2.16h0l-.135.2-.2.338-.2.27-.135.27c-.068.135-.135.2-.2.338l-.135.2-.2.608a3.848,3.848,0,0,0,0,1.755,6.8,6.8,0,0,0,.945,2.16c.2.27.337.54.54.81s.337.4.472.607a17.852,17.852,0,0,0-.135,1.89,14.111,14.111,0,0,0,5.332,11,45.451,45.451,0,0,1-.068,8.572c-.068.608-.135,1.215-.2,1.755s-.135,1.012-.2,1.485a7.3,7.3,0,0,1-2.97-.2c-.473-.2-.877-.337-1.35-.54-1.957-.472-3.982,1.485-5.939.877,0,.067-.067.2-.067.27a2.433,2.433,0,0,0-1.35-.405,4.78,4.78,0,0,1-2.9-1.687l-2.565-2.43a3.109,3.109,0,0,1-.472-.473,4.106,4.106,0,0,1-.337-.81,10.1,10.1,0,0,0-2.5-3.577,1.915,1.915,0,0,0-.742-.54H754.8c-.068-.067-.135-.2-.2-.27a4.07,4.07,0,0,0-.54-.54c-1.215-1.147-1.35-2.092-2.43-3.375a33.284,33.284,0,0,1-2.5-3.78c-.067-.675-.2-1.417-.337-2.16a25.794,25.794,0,0,0-1.485-4.927l.945-1.012v-1.013l1.62-1.957-.135-.068,2.025-1.89-2.025-.068-.945,1.282-.067-.068-1.687,1.687-1.215.135-.135.135c-1.012-1.485-2.025-2.227-2.97-2.092-1.553.337-2.362,3.375-2.092,7.357l-4.657,4.927-.54.54-2.43,3.1,1.89,1.822,2.9-2.7.472-.54,2.9-3.105a2.92,2.92,0,0,1,.068.338,10.1,10.1,0,0,0-.135,1.485c0,.608.54,1.013.81,1.485a3.973,3.973,0,0,1,.675,2.3c0,.27-.135.54-.135.877a3.433,3.433,0,0,0,.607,1.755c1.147,1.89,2.227,3.78,3.375,5.67.2.4.473.81.675,1.215v.067a3.174,3.174,0,0,0,.878,1.012,12.492,12.492,0,0,0,1.147,4.117c.135.27.27.472.405.742a20.921,20.921,0,0,0,3.172,4.117l1.62,1.822c1.552,1.755,3.172,3.577,4.86,5.2a6.609,6.609,0,0,0,2.228,1.552,2.426,2.426,0,0,0,2.43-.338v2.5a1.95,1.95,0,0,1,1.215.742,1.66,1.66,0,0,1-.135,1.485,56.223,56.223,0,0,1-4.994,10.6,23.561,23.561,0,0,1,4.185,3.172,15.948,15.948,0,0,1,2.16,2.97,10.986,10.986,0,0,1,.135,1.485c.472,8.032-2.632,16.064-5.4,23.691-.81,2.16-1.687,4.455-1.62,6.682-.54.337-1.012.675-1.552,1.08a9.95,9.95,0,0,1,.27,4.252,7.407,7.407,0,0,1-.54,2.7c-.27.608-.675,1.148-.945,1.755-1.755,3.1-2.16,6.75-2.5,10.259-.2,2.16.607,4.725-.338,6.615-1.687,3.24-3.172,6.75-3.375,10.395a10.029,10.029,0,0,1-.338,2.43c-.2.675-.607,1.215-.81,1.89a7.293,7.293,0,0,0-.135,2.7,25.286,25.286,0,0,1-1.417,9.517c-.877,2.43-1.755,4.995-1.08,7.492a10.37,10.37,0,0,0-2.835,6.277,8.387,8.387,0,0,1-.2,1.822,8.266,8.266,0,0,1-.81,1.755,14.761,14.761,0,0,0-1.823,8.1,22.755,22.755,0,0,0-3.645,9.517c-.608,3.375-.877,6.817-1.62,10.125-1.013,4.387-2.9,8.842-3.24,13.364-2.16,1.417-3.1,4.117-3.577,6.682s-.472,5.265-1.552,7.627c-.54,1.215-1.35,2.362-1.89,3.577a12.4,12.4,0,0,0-.81,3.1,11.755,11.755,0,0,0-.2,5.062,6.02,6.02,0,0,1-1.957,1.485,8.626,8.626,0,0,0,.27-1.283c-1.755,1.553-4.927,1.012-6.277,2.9a2.879,2.879,0,0,0,.675,3.915,4.487,4.487,0,0,0,1.417.607c3.375,1.08,6.817,2.16,10.327,1.62a2.756,2.756,0,0,0,2.227-1.687l1.553-2.5a23.662,23.662,0,0,0,3.78.877c.135,1.08.2,2.16.27,3.24.675.135,1.552.2,1.89-.472a2.871,2.871,0,0,0,.135-.743c0-.472.067-1.147.135-1.755h.135a12.682,12.682,0,0,0,5.94-1.215c-.743-5.94,1.687-11.812,3.712-17.481,2.159-5.94,4.049-12.015,5.939-18.089,1.35-4.252,2.835-8.37,4.185-12.689,1.687-5.4,3.375-10.8,4.995-16.2.743-2.362,1.485-4.725,2.295-7.087a103.037,103.037,0,0,1,6.277-13.9c.674-1.282,1.35-2.565,1.89-3.847.675-1.62,1.147-3.307,1.687-4.927a76.548,76.548,0,0,1,4.252-9.989l.135-.27c.54,2.228,1.08,4.522,1.485,6.75a26.772,26.772,0,0,1,.135,8.369,26.8,26.8,0,0,0-.877,5.67c.135,2.632,1.485,5.062,2.227,7.56a27.912,27.912,0,0,1,.742,5.8c.2,3.037,1.822,6.412.675,9.247-3.577,8.909-1.89,18.966-3.915,28.349-1.08,4.792-4.32,9.314-4.05,14.242.2,3.51.473,6.952.945,10.462a9.948,9.948,0,0,0,.743,3.1,11.079,11.079,0,0,0,.945,1.485,1.572,1.572,0,0,0-.742,1.08,4.131,4.131,0,0,0,1.485,4.725,6.732,6.732,0,0,0,1.957.675,10.28,10.28,0,0,0,2.835.4,3.932,3.932,0,0,0,.877-.135,25.29,25.29,0,0,0,3.172,1.147,3.284,3.284,0,0,0,.068.81.967.967,0,0,0,.337.742,1.272,1.272,0,0,0,.54.135h3.645v-.945a3.313,3.313,0,0,0,2.362-.743,3.455,3.455,0,0,0,.675-1.417c1.012-3.375,2.025-6.75,2.97-10.192a24.325,24.325,0,0,0,1.012-4.387,32.225,32.225,0,0,0,.4-7.222c-1.282-12.419,1.552-24.906.608-37.393a88.958,88.958,0,0,1,1.147-22.409,43.74,43.74,0,0,0,.81-5.062c.27-3.172-.067-6.345.135-9.449.068-1.08.2-2.16.338-3.24a158.438,158.438,0,0,0,1.552-20.384,56.656,56.656,0,0,0-.4-6.75,3.875,3.875,0,0,0,1.822-1.08,4.675,4.675,0,0,0,.472-2.9c0-2.363,1.013-4.657,1.822-6.885a93.137,93.137,0,0,0,2.565-9.449,34.893,34.893,0,0,0,1.147-7.964,3.289,3.289,0,0,0-.067-.81,1.92,1.92,0,0,0,.608-.675,4.112,4.112,0,0,0,.337-1.215c.27-1.755.472-3.442.742-5.2.2-1.215.338-2.5.54-3.712.742-4.995,1.417-9.989,2.16-14.984.2-1.282.337-2.632.54-3.915l.54-3.847c.067-.473.135-.945.2-1.35C820.407,366.244,818.787,362.532,818.652,359.427Zm-17.887,56.022a12.092,12.092,0,0,1-1.35-5.872h-.067a3.022,3.022,0,0,0-.068-1.89,15.107,15.107,0,0,0-.81-1.417,4.476,4.476,0,0,1-.338-1.89,52.73,52.73,0,0,1,.945-12.217c.067-.472.2-.945.27-1.417a2.106,2.106,0,0,0,.742-.607,5.764,5.764,0,0,0,.877-1.35c.743-1.552,1.485-3.1,2.093-4.657a1.866,1.866,0,0,1,1.012-1.215c-.135,3.915.27,7.965-1.35,11.542a6.655,6.655,0,0,0-.675,1.822c-.135,1.012.27,2.025.135,3.037a9.534,9.534,0,0,1-.4,1.485,1.367,1.367,0,0,0,.4,1.417.515.515,0,0,0,.27.135,3.3,3.3,0,0,0-.067.81c-.068.54-.068,1.08-.135,1.417-.135,1.62-.2,3.307-.2,4.927,0,1.822.067,3.577.067,5.4a3.958,3.958,0,0,1-.27,1.553,2.636,2.636,0,0,1-.54.675A12.343,12.343,0,0,0,800.765,415.449Z" transform="translate(-374.624 -174.909)" fill="url(#linear-gradient)"/>
    <path id="Path_166" data-name="Path 166" d="M765.635,323.126,768,320.97l-2.087-.07-1.113,1.67Z" transform="translate(-392.506 -184.586)" fill="#33313f"/>
    <path id="Path_167" data-name="Path 167" d="M741.8,338.981l2.5-3.2.557-.557,7.584-7.932,2.574-2.713,1.183-.139,1.74-1.739,1.044.9-1.67,1.948V326.6l-2.644,2.853-7.445,8.071-.487.557-2.992,2.783Z" transform="translate(-385.509 -185.134)" fill="#65617d"/>
    <path id="Path_168" data-name="Path 168" d="M746.2,337.232l7.584-7.932,2.227,2.157-7.445,8.071Z" transform="translate(-386.848 -187.142)" fill="#33313f"/>
    <ellipse id="Ellipse_53" data-name="Ellipse 53" cx="3.896" cy="11.132" rx="3.896" ry="11.132" transform="matrix(0.98, -0.201, 0.201, 0.98, 362.458, 138.238)" fill="#fbbebe"/>
    <path id="Path_169" data-name="Path 169" d="M809.095,673.915a4.159,4.159,0,0,0,1.531,4.8,6.944,6.944,0,0,0,2.018.7,10.594,10.594,0,0,0,2.922.417c1.183-.069,2.365-.557,3.548-.7a.881.881,0,0,1,.417.07.43.43,0,0,1,.139.487c0,.7.07,1.392.139,2.087a.786.786,0,0,0,.7.9h4.035a35.71,35.71,0,0,0-1.113-9.81,2.081,2.081,0,0,0-.278-.7,2.327,2.327,0,0,0-1.183-.7,6.04,6.04,0,0,0-2.922-.487,8.951,8.951,0,0,0-3.27,1.6,5.014,5.014,0,0,1-3.688.9C810.834,673.149,809.721,672.036,809.095,673.915Z" transform="translate(-405.91 -291.093)" fill="#3f3d56"/>
    <path id="Path_170" data-name="Path 170" d="M727.561,670.2a10.336,10.336,0,0,1-3.827,2.574l-.626.348q-.1,0-.209.209a.628.628,0,0,0,.069.348,4.6,4.6,0,0,0,5.079,1.878,2.12,2.12,0,0,0,1.113-.557,3.282,3.282,0,0,0,.835-2.226,4.646,4.646,0,0,0-.139-2.574C729.023,667.9,728.674,668.874,727.561,670.2Z" transform="translate(-379.759 -290.437)" fill="#fbbebe"/>
    <path id="Path_171" data-name="Path 171" d="M740.168,678.99a1.381,1.381,0,0,1-.139.766c-.348.626-1.253.626-1.948.487a58.745,58.745,0,0,0-.835-7.027c-1.322-.07-2.3,1.252-3.061,2.366l-1.878,2.991a3.231,3.231,0,0,1-1.113,1.253,3.425,3.425,0,0,1-1.183.417c-3.548.557-7.166-.557-10.576-1.67a6.6,6.6,0,0,1-1.461-.626,2.957,2.957,0,0,1-.7-4.035c1.461-1.948,4.661-1.391,6.471-2.992a19.876,19.876,0,0,1-.9,3.34c2.435-.348,4.036-2.575,5.984-4.036a3.792,3.792,0,0,1,1.67-.835,3.077,3.077,0,0,1,1.391.139,16.758,16.758,0,0,1,6.123,2.992,7.026,7.026,0,0,1,2.226,2.3C740.516,675.859,740.168,677.807,740.168,678.99Z" transform="translate(-377.894 -290.602)" fill="#3f3d56"/>
    <ellipse id="Ellipse_54" data-name="Ellipse 54" cx="14.402" cy="14.402" rx="14.402" ry="14.402" transform="translate(395.741 130.052)" fill="#fbbebe"/>
    <path id="Path_172" data-name="Path 172" d="M853.334,452.513a31.985,31.985,0,0,1-1.183,8.14,80.8,80.8,0,0,1-2.644,9.741c-.835,2.3-1.879,4.661-1.879,7.1a4.819,4.819,0,0,1-.487,2.992,4.572,4.572,0,0,1-2.018,1.183,2.71,2.71,0,0,0-1.739,1.531,12.2,12.2,0,0,1-1.461-3.2c-1.252-3.827-2.435-7.653-3.478-11.55a1.629,1.629,0,0,1,.069-1.391,2.826,2.826,0,0,1,.626-.348,5.83,5.83,0,0,0,1.948-1.252,1.9,1.9,0,0,0,.626-.835,4.086,4.086,0,0,0,.278-1.6c0-1.809,0-3.687-.069-5.5a41.374,41.374,0,0,1,.209-5.079,14.3,14.3,0,0,1,.139-1.461c.139-1.113.348-2.366.9-2.783.9-.626,3.548.209,4.523.348,1.739.209,3.479.557,5.149.835A9.793,9.793,0,0,1,853.334,452.513Z" transform="translate(-414.874 -223.246)" fill="#3f3d56"/>
    <path id="Path_173" data-name="Path 173" d="M769.594,349.391c-.556,1.113-1.878,1.67-2.922,2.365l-3.548,2.435a2.672,2.672,0,0,1-1.739.626,2.326,2.326,0,0,1-1.322-1.252l-.07-.07-.7-1.252-3.479-5.844a3,3,0,0,1-.626-1.809c0-.278.139-.556.139-.9a4.1,4.1,0,0,0-.7-2.366c-.279-.557-.835-.974-.835-1.531a4.888,4.888,0,0,1,.417-2.226,4.227,4.227,0,0,1,1.531-1.6c.348-.209.7-.487,1.043-.7a2.481,2.481,0,0,1,.626-.278c.557-.139,1.114.348,1.74.348,2.5,1.67,3.479,4.87,5.427,7.166,1.113,1.322,1.252,2.3,2.5,3.479a4.168,4.168,0,0,1,.557.557,2.655,2.655,0,0,1,.626.9C768.48,348.139,769.872,348.835,769.594,349.391Z" transform="translate(-389.16 -188.865)" fill="#3f3d56"/>
    <path id="Path_174" data-name="Path 174" d="M809.039,348.669a12.416,12.416,0,0,1,1.531,7.027,4.33,4.33,0,0,1-.626,1.809c-.974,1.531-3.131,1.809-4.94,1.878a3.1,3.1,0,0,0-2.157.7,1.887,1.887,0,0,0,.139,2.366,5.041,5.041,0,0,0,2.157,1.391c2.922,1.252,5.984,2.366,9.184,2.018,1.461-.139,2.852-.557,4.313-.765,1.6-.139,3.131-.278,4.731-.278,1.878-.07,3.757-.278,5.636-.417l5.01-.487a1.045,1.045,0,0,0,.765-.278c.348-.417-.139-1.044-.556-1.391-2.644-1.948-6.053-3.34-7.514-6.262-.7-1.392-.9-3.061-1.461-4.522a33.4,33.4,0,0,1-1.67-4.383,26.116,26.116,0,0,1-.209-4.035,5.4,5.4,0,0,0-1.392-3.688,5.965,5.965,0,0,0-3.757-1.252c-3.339-.139-6.888.626-9.253,2.992-.626.626-1.183,1.391-1.809,1.948s-1.531.765-1.113,1.461,1.252,1.183,1.739,1.879A18.683,18.683,0,0,1,809.039,348.669Z" transform="translate(-403.976 -189.812)" fill="#fbbebe"/>
    <path id="Path_175" data-name="Path 175" d="M830.886,374.473a81.424,81.424,0,0,1-4.244,15.655,64.966,64.966,0,0,0-2.5,7.027c-.556,2.157-.417,4.453-.9,6.61-.626,2.714-1.252,5.427-1.739,8.141a50.79,50.79,0,0,0-.974,12.593,6.046,6.046,0,0,0,.348,1.948c.209.487.626.9.835,1.461a3.256,3.256,0,0,1-.209,2.783,7.391,7.391,0,0,1-1.461,2.157c-6.471,1.948-13.428,1.322-20.177,1.739-6.262.348-12.524,1.67-18.646.557-.7-2.783.487-5.705,1.461-8.419,2.853-7.862,6.053-16.072,5.566-24.352a18.806,18.806,0,0,0-.348-2.853c-.974-5.845.069-11.9,1.879-17.6a29.228,29.228,0,0,0,.766-10.993,20.84,20.84,0,0,1-.07-3.618,6.415,6.415,0,0,1,1.322-3.34l.139-.139c.07-.139.278-.069.487,0h0a.316.316,0,0,0,.348,0l.07-.069a.13.13,0,0,1,.209,0c.139.069.209.417.556.487a11.4,11.4,0,0,0,1.531.139,8.754,8.754,0,0,1,1.879.278h.069a6.008,6.008,0,0,0,2.713-.209,8.169,8.169,0,0,0,1.67-.626,7.338,7.338,0,0,1,1.322-.418c.626-.418.487-2.157.626-2.922a10.8,10.8,0,0,1,.487-2.157,3.668,3.668,0,0,1,2.992-1.739,12.072,12.072,0,0,1,3.548.348c2.574.348,5.218.278,7.792.9,1.252.278,2.644.765,3.827.209.348.07.348.348.348.7a2.453,2.453,0,0,1-.208.974c-.418,1.948,1.044,3.688,2.435,5.079a12.223,12.223,0,0,0,2.087,1.67c.7.348,1.392.418,2.087.765a4.015,4.015,0,0,1,1.391,1.252,4.5,4.5,0,0,1,.765,2.018A8.5,8.5,0,0,1,830.886,374.473Z" transform="translate(-397.435 -195.44)" fill="#3f3d56"/>
    <path id="Path_176" data-name="Path 176" d="M833.766,377.645a81.376,81.376,0,0,1-4.244,15.655,65.072,65.072,0,0,0-2.5,7.027c-.556,2.157-.418,4.453-.9,6.61-.626,2.713-1.252,5.427-1.739,8.14l-.417.209a12.442,12.442,0,0,1-2.714.9,17.77,17.77,0,0,1-5.079-.139l-9.949-1.322c-3.966-.557-8.21-1.183-11.132-3.827a24.739,24.739,0,0,1-3.9-5.288,18.754,18.754,0,0,0-.348-2.852c-.974-5.845.07-11.9,1.879-17.6a29.227,29.227,0,0,0,.765-10.993,20.833,20.833,0,0,1-.07-3.618,6.41,6.41,0,0,1,1.322-3.34,2.029,2.029,0,0,1,.626-.139h0c.139,0,.278-.069.417-.069h.209a2.371,2.371,0,0,1,.7.069,11.646,11.646,0,0,1,1.391.557h.07a5.859,5.859,0,0,0,1.878.278c.9,0,1.878-.139,2.783-.209a4.861,4.861,0,0,1,3.27.557,20.568,20.568,0,0,1,1.809,1.67,7.4,7.4,0,0,0,2.3,1.252,24.359,24.359,0,0,0,18.507-.418,3.446,3.446,0,0,1,1.878-.487,3.166,3.166,0,0,1,1.322.557,11.256,11.256,0,0,0,1.253.7,4.5,4.5,0,0,1,.765,2.018A11.593,11.593,0,0,1,833.766,377.645Z" transform="translate(-400.315 -198.612)" opacity="0.1"/>
    <path id="Path_177" data-name="Path 177" d="M837.213,372.472a36.6,36.6,0,0,1-7.931-3.479,3.171,3.171,0,0,0-1.322-.557,3.61,3.61,0,0,0-1.878.487,25.031,25.031,0,0,1-18.507.417,7.4,7.4,0,0,1-2.3-1.252,13.555,13.555,0,0,0-1.809-1.67c-2.3-1.461-5.427.278-8-.7-.417-.209-.9-.348-1.391-.557-2.018-.487-4.105,1.531-6.053.9a27.978,27.978,0,0,0-1.6,6.192c-.278,2.435-.417,4.87-.487,7.305q-.1,2.192,0,4.383a2.011,2.011,0,0,1,1.252.765,1.552,1.552,0,0,1-.139,1.461,55.431,55.431,0,0,1-5.149,10.854,24.272,24.272,0,0,1,4.314,3.27c2.436,2.574,3.618,6.192,6.262,8.558,2.992,2.713,7.166,3.34,11.132,3.9l9.949,1.391a17.769,17.769,0,0,0,5.079.139,8.915,8.915,0,0,0,2.714-.9,4.429,4.429,0,0,0,1.53-.974,5.957,5.957,0,0,0,.9-1.391c.765-1.6,1.531-3.2,2.157-4.8.209-.557.557-1.252,1.183-1.322,3.687-3.34,7.166-6.749,10.854-10.089a28.157,28.157,0,0,0,3.966-4.175c1.809-2.713.139-6.54,0-9.81a15.347,15.347,0,0,0-.278-2.5C840.9,376.02,839.509,373.168,837.213,372.472Z" transform="translate(-397.709 -198.031)" fill="#38d39f"/>
    <path id="Path_178" data-name="Path 178" d="M772.332,354.433c-.557,1.113-1.878,1.67-2.923,2.366l-3.548,2.435a2.671,2.671,0,0,1-1.739.626,2.325,2.325,0,0,1-1.322-1.252v-.487a6.87,6.87,0,0,1,.209-1.67,6.211,6.211,0,0,1,1.531-2.018,11.993,11.993,0,0,1,4.592-2.783,1.164,1.164,0,0,1,.835-.07.361.361,0,0,1,.278.139,2.65,2.65,0,0,1,.626.9C771.219,353.18,772.61,353.876,772.332,354.433Z" transform="translate(-391.898 -193.906)" opacity="0.1"/>
    <path id="Path_179" data-name="Path 179" d="M780.965,362a4.927,4.927,0,0,1-2.991-1.74l-2.644-2.5a3.214,3.214,0,0,1-.487-.487,4.245,4.245,0,0,1-.348-.835,10.4,10.4,0,0,0-2.574-3.687,1.968,1.968,0,0,0-.765-.557,1.713,1.713,0,0,0-.835.07,12,12,0,0,0-4.592,2.783,4.888,4.888,0,0,0-1.531,2.018,3.472,3.472,0,0,0-.208,1.67,11.892,11.892,0,0,0,1.252,5.357c.139.278.279.487.418.765a23.83,23.83,0,0,0,3.27,4.244l1.67,1.879c1.6,1.809,3.27,3.618,5.009,5.288a7.271,7.271,0,0,0,2.227,1.6,2.465,2.465,0,0,0,2.574-.417,5.04,5.04,0,0,0,.765-1.322,26.62,26.62,0,0,0,2.157-8.7,31.393,31.393,0,0,0-.139-3.618C783.052,362.554,782.148,362.067,780.965,362Z" transform="translate(-392.252 -194.096)" fill="#38d39f"/>
    <path id="Path_180" data-name="Path 180" d="M812.462,492.36A175.549,175.549,0,0,1,811,513.3c-.14,1.113-.279,2.226-.348,3.34-.209,3.27.139,6.54-.139,9.74-.139,1.739-.556,3.479-.835,5.218A91.313,91.313,0,0,0,808.5,554.63c.974,12.8-1.948,25.674-.626,38.475a33.222,33.222,0,0,1-.417,7.445c-.278,1.531-.626,3.061-1.044,4.523-1.043,3.479-2.017,6.957-3.061,10.436a3.557,3.557,0,0,1-.7,1.461,3.259,3.259,0,0,1-2.644.765c-4.036-.139-7.793-1.879-11.411-3.548a4.073,4.073,0,0,1-1.183-.7c-.765-.765-.7-2.018-1.043-3.061a34.178,34.178,0,0,0-1.739-3.061,9.842,9.842,0,0,1-.765-3.131c-.487-3.548-.765-7.166-.974-10.715-.279-5.079,3.061-9.671,4.175-14.611,2.087-9.671.348-20.038,4.035-29.152,1.183-2.922-.557-6.4-.7-9.532a34.334,34.334,0,0,0-.765-5.984c-.7-2.644-2.157-5.079-2.3-7.793a28.334,28.334,0,0,1,.9-5.844,25.25,25.25,0,0,0-.139-8.558,59.034,59.034,0,0,0-1.531-6.957l-.139.278a89.69,89.69,0,0,0-4.383,10.3c-.557,1.739-1.044,3.409-1.739,5.079a41.875,41.875,0,0,1-1.948,3.966,105.82,105.82,0,0,0-6.4,14.333c-.835,2.435-1.6,4.87-2.366,7.306-1.74,5.566-3.409,11.132-5.149,16.7-1.392,4.383-2.922,8.627-4.314,13.011-1.948,6.262-3.827,12.454-6.122,18.577-2.157,5.844-4.592,11.828-3.827,17.951a13.443,13.443,0,0,1-6.123,1.252,35.874,35.874,0,0,1-10.436-2.575,7.437,7.437,0,0,1-3.618-2.157c-1.531-1.878-1.183-4.661-.7-7.027a16.674,16.674,0,0,1,.835-3.2c.556-1.252,1.391-2.435,1.948-3.687,1.113-2.435,1.183-5.218,1.6-7.793s1.392-5.427,3.618-6.818c.348-4.661,2.3-9.184,3.34-13.706.765-3.409,1.044-6.958,1.67-10.437a22.816,22.816,0,0,1,3.757-9.741,15.846,15.846,0,0,1,1.878-8.349,9.92,9.92,0,0,0,.835-1.739,8.5,8.5,0,0,0,.209-1.809,10.872,10.872,0,0,1,2.922-6.471c-.7-2.574.279-5.218,1.114-7.653a26.077,26.077,0,0,0,1.461-9.81,7.5,7.5,0,0,1,.139-2.783c.209-.7.556-1.252.765-1.948a15.461,15.461,0,0,0,.348-2.5c.278-3.757,1.809-7.306,3.479-10.645.974-1.948.139-4.661.348-6.818.348-3.618.766-7.375,2.575-10.575a14.99,14.99,0,0,0,.974-1.809,7.637,7.637,0,0,0,.556-2.783,10.256,10.256,0,0,0-.278-4.383c3.688-3.131,8.836-3.966,13.637-4.175s9.741.209,14.472-.835c1.391-.278,2.783-.765,4.244-.974,3.34-.487,6.749.278,10.019,1.044a12.465,12.465,0,0,0,1.391,6.053A60.7,60.7,0,0,1,812.462,492.36Z" transform="translate(-381.585 -227.052)" fill="#33313f"/>
    <path id="Path_181" data-name="Path 181" d="M821.271,508.5l-8,18.02a59.053,59.053,0,0,0-1.53-6.958l-.139.278v-.348l4.383-9.6Z" transform="translate(-406.745 -241.662)" opacity="0.1"/>
    <path id="Path_182" data-name="Path 182" d="M855.093,452.483a2.788,2.788,0,0,1-1.6.557,8.644,8.644,0,0,1-2.644-.348l-6.192-1.6a4.81,4.81,0,0,1-.556-.208c.139-1.113.348-2.366.9-2.783.9-.626,3.548.209,4.522.348,1.739.209,3.479.556,5.149.835A13.054,13.054,0,0,1,855.093,452.483Z" transform="translate(-416.633 -223.215)" opacity="0.1"/>
    <path id="Path_183" data-name="Path 183" d="M860.084,393.992a12.711,12.711,0,0,1,.418,1.739,12.869,12.869,0,0,1-.139,4.314l-.557,3.966-.556,4.035-2.227,15.376-.556,3.827-.765,5.357a3.708,3.708,0,0,1-.348,1.252,2.542,2.542,0,0,1-2.157,1.252,7.939,7.939,0,0,1-2.574-.348l-6.262-1.6a1.543,1.543,0,0,1-.765-.348,1.45,1.45,0,0,1-.417-1.461c.07-.557.348-1.044.417-1.531.139-1.044-.278-2.087-.139-3.131a6.124,6.124,0,0,1,.7-1.879c2.087-4.592.9-10.019,1.6-15.028A22.873,22.873,0,0,1,850.482,399a29.3,29.3,0,0,1,5.357-5.218c.765-.626,2.018-1.878,2.992-2.087C860.154,391.557,859.875,393.157,860.084,393.992Z" transform="translate(-416.336 -206.123)" fill="#38d39f"/>
    <path id="Path_184" data-name="Path 184" d="M796.54,307.351c-.487,1.461.278,3.061-.069,4.522-.348,1.67-1.878,2.783-2.366,4.453-.7,2.5,1.461,4.8,2.992,6.888,5.775,7.723,5.01,18.438,3.061,27.9a138.577,138.577,0,0,1-6.609,22.264A16.193,16.193,0,0,1,790,379.571c3.2-.9,6.61-1.809,9.81-.974,4.035,1.113,7.584,5.079,11.689,4.174,2.5-.557,4.244-2.783,6.471-3.966,4.174-2.227,9.184-.835,13.845-.139a5.451,5.451,0,0,0,2.992-.139,4.666,4.666,0,0,0,1.809-1.67,16.72,16.72,0,0,0,3.548-9.254,11.888,11.888,0,0,0-3.409-9.114,18.445,18.445,0,0,1-2.922-2.783,8.823,8.823,0,0,1-1.183-4.244c-.556-7.653,1.322-15.446-.626-22.89-.7-2.644-1.809-5.149-2.157-7.862-.348-3.34.557-6.958-.835-10.019a9.851,9.851,0,0,0-5.845-5.079,29.583,29.583,0,0,0-7.792-1.392C811.777,304.011,798.141,302.411,796.54,307.351Z" transform="translate(-400.173 -179.386)" fill="#33313f"/>
    <g id="Group_3" data-name="Group 3" transform="translate(389.827 126.295)" opacity="0.1">
      <path id="Path_185" data-name="Path 185" d="M801.74,355.745a144.961,144.961,0,0,1-6.54,22.195,26.306,26.306,0,0,0,1.253-2.922,146.072,146.072,0,0,0,6.61-22.264c1.948-9.462,2.714-20.177-3.061-27.9-1.391-1.809-3.2-3.827-3.131-6.053a8.113,8.113,0,0,0-1.183,2.157c-.7,2.5,1.461,4.8,2.992,6.888C804.453,335.568,803.688,346.282,801.74,355.745Z" transform="translate(-791.582 -310.242)"/>
      <path id="Path_186" data-name="Path 186" d="M799.325,312a7.014,7.014,0,0,0,1.252-2.366,11.8,11.8,0,0,0-.07-3.131,3.857,3.857,0,0,0-1.183,1.6C798.908,309.422,799.395,310.744,799.325,312Z" transform="translate(-792.785 -306.5)"/>
      <path id="Path_187" data-name="Path 187" d="M838.007,403.435a4.814,4.814,0,0,1-1.879,1.67,4.9,4.9,0,0,1-2.992.139c-4.661-.7-9.74-2.157-13.845.139-2.227,1.183-3.966,3.409-6.47,3.966-4.105.9-7.654-2.992-11.689-4.174-2.852-.765-5.914-.139-8.836.7a11.012,11.012,0,0,1-2.3,3.34c3.2-.9,6.61-1.809,9.81-.974,4.035,1.113,7.583,5.079,11.688,4.174,2.5-.556,4.244-2.783,6.47-3.966,4.175-2.226,9.184-.835,13.846-.139a5.45,5.45,0,0,0,2.992-.139,4.667,4.667,0,0,0,1.809-1.67,18.809,18.809,0,0,0,2.853-5.5A9.836,9.836,0,0,1,838.007,403.435Z" transform="translate(-790 -335.251)"/>
    </g>
    <path id="Path_188" data-name="Path 188" d="M909.1,575.5s3.07,4.059-1.405,10.147-8.222,11.24-6.713,15.039c0,0,6.817-11.344,12.333-11.448S915.193,582.317,909.1,575.5Z" transform="translate(-452.701 -276.023)" fill="#38d39f"/>
    <path id="Path_189" data-name="Path 189" d="M909.226,575.5a6.993,6.993,0,0,1,.625,1.249c5.412,6.349,8.274,12.281,3.07,12.437-4.84.156-10.668,8.794-12.021,10.98.052.156.1.312.156.52,0,0,6.817-11.344,12.333-11.448S915.315,582.317,909.226,575.5Z" transform="translate(-452.822 -276.023)" opacity="0.1"/>
    <path id="Path_190" data-name="Path 190" d="M927.229,584.553c0,1.4-.156,2.55-.364,2.55s-.364-1.145-.364-2.55.208-.78.416-.78S927.229,583.148,927.229,584.553Z" transform="translate(-465.101 -279.925)" fill="#ffd037"/>
    <path id="Path_191" data-name="Path 191" d="M929.439,587.813c-1.249.676-2.342,1.093-2.446.937s.833-.885,2.082-1.561.78-.156.832,0S930.687,587.136,929.439,587.813Z" transform="translate(-465.333 -281.467)" fill="#ffd037"/>
    <path id="Path_192" data-name="Path 192" d="M879.213,575.5s-3.07,4.059,1.405,10.147,8.222,11.24,6.713,15.039c0,0-6.817-11.344-12.333-11.448S873.125,582.317,879.213,575.5Z" transform="translate(-439.097 -276.023)" fill="#38d39f"/>
    <path id="Path_193" data-name="Path 193" d="M879.248,575.5a7,7,0,0,0-.625,1.249c-5.412,6.349-8.274,12.281-3.07,12.437,4.84.156,10.668,8.794,12.021,10.98-.052.156-.1.312-.156.52,0,0-6.817-11.344-12.333-11.448S873.159,582.317,879.248,575.5Z" transform="translate(-439.132 -276.023)" opacity="0.1"/>
    <path id="Path_194" data-name="Path 194" d="M874.6,584.553c0,1.4.156,2.55.364,2.55s.364-1.145.364-2.55-.208-.78-.416-.78S874.6,583.148,874.6,584.553Z" transform="translate(-440.208 -279.925)" fill="#ffd037"/>
    <path id="Path_195" data-name="Path 195" d="M870.13,587.813c1.249.676,2.341,1.093,2.446.937s-.832-.885-2.082-1.561-.781-.156-.832,0S868.881,587.136,870.13,587.813Z" transform="translate(-437.716 -281.467)" fill="#ffd037"/>
    <path id="Path_196" data-name="Path 196" d="M902.447,611.771l-.156,1.249-.208,1.769-.1.729-.208,1.769-.1.729-.208,1.769-2.5,20.243c-.208,1.821-3.174,3.226-6.713,3.226H879.394c-3.539,0-6.5-1.4-6.713-3.226l-2.5-20.243-.208-1.769-.1-.729-.208-1.769-.1-.729-.208-1.769-.156-1.249c-.1-1.041,1.457-1.873,3.487-1.873h26.227C900.99,609.846,902.6,610.731,902.447,611.771Z" transform="translate(-437.614 -292.52)" fill="#444053"/>
    <path id="Path_197" data-name="Path 197" d="M902.488,615.9l-.208,1.769H869.808L869.6,615.9Z" transform="translate(-437.81 -295.4)" fill="#9d9cb5"/>
    <path id="Path_198" data-name="Path 198" d="M902.515,620.7l-.26,1.769H870.408L870.2,620.7Z" transform="translate(-438.098 -297.702)" fill="#9d9cb5"/>
    <path id="Path_199" data-name="Path 199" d="M902.491,625.6l-.208,1.769H871.008L870.8,625.6Z" transform="translate(-438.386 -300.052)" fill="#9d9cb5"/>
  </g>
</svg>
