<svg xmlns="http://www.w3.org/2000/svg" xmlns:xlink="http://www.w3.org/1999/xlink" width="1033.599" height="1012.649" viewBox="0 0 1033.599 1012.649">
  <defs>
    <clipPath id="clip-path">
      <path id="Path_401" data-name="Path 401" d="M0-627.495H506.3v276.26H0Z" transform="translate(0 627.495)" fill="none"/>
    </clipPath>
    <clipPath id="clip-path-2">
      <rect id="Rectangle_112" data-name="Rectangle 112" width="506.294" height="276.26" fill="none"/>
    </clipPath>
    <clipPath id="clip-path-3">
      <rect id="Rectangle_113" data-name="Rectangle 113" width="493.641" height="6.018" fill="none"/>
    </clipPath>
    <clipPath id="clip-path-4">
      <rect id="Rectangle_114" data-name="Rectangle 114" width="123.486" height="85.965" fill="none"/>
    </clipPath>
    <clipPath id="clip-path-5">
      <rect id="Rectangle_115" data-name="Rectangle 115" width="89.914" height="114.007" fill="none"/>
    </clipPath>
    <clipPath id="clip-path-6">
      <rect id="Rectangle_116" data-name="Rectangle 116" width="169.676" height="134.62" fill="none"/>
    </clipPath>
    <clipPath id="clip-path-7">
      <rect id="Rectangle_117" data-name="Rectangle 117" width="100.196" height="103.638" fill="none"/>
    </clipPath>
    <clipPath id="clip-path-8">
      <rect id="Rectangle_118" data-name="Rectangle 118" width="87.947" height="100.888" fill="none"/>
    </clipPath>
    <clipPath id="clip-path-9">
      <rect id="Rectangle_119" data-name="Rectangle 119" width="27.345" height="27.345" fill="none"/>
    </clipPath>
    <clipPath id="clip-path-10">
      <rect id="Rectangle_120" data-name="Rectangle 120" width="18.498" height="16.319" fill="none"/>
    </clipPath>
    <clipPath id="clip-path-11">
      <rect id="Rectangle_121" data-name="Rectangle 121" width="10.954" height="6.046" fill="none"/>
    </clipPath>
    <clipPath id="clip-path-13">
      <rect id="Rectangle_123" data-name="Rectangle 123" width="46.637" height="24.012" fill="none"/>
    </clipPath>
    <clipPath id="clip-path-14">
      <rect id="Rectangle_124" data-name="Rectangle 124" width="24.4" height="27.463" fill="none"/>
    </clipPath>
    <clipPath id="clip-path-15">
      <rect id="Rectangle_125" data-name="Rectangle 125" width="34.204" height="20.468" fill="none"/>
    </clipPath>
  </defs>
  <g id="Contact_Illustration" data-name="Contact Illustration" transform="translate(-662.666 -3220.742)">
    <path id="Path_255" data-name="Path 255" d="M-19.848,398.223,813,0,789.18,594.635,195.727,876.211,29.507,791.924Z" transform="translate(769.233 3333.89) rotate(-8)" fill="#54b192"/>
    <ellipse id="Ellipse_57" data-name="Ellipse 57" cx="265" cy="261" rx="265" ry="261" transform="matrix(0.996, -0.087, 0.087, 0.996, 662.666, 3713.377)" fill="#54b192"/>
    <g id="Illustration" transform="translate(736.849 4377.607)">
      <g id="Group_255" data-name="Group 255" transform="translate(0 -627.495)" clip-path="url(#clip-path)">
        <g id="Group_144" data-name="Group 144" opacity="0.1">
          <g id="Group_143" data-name="Group 143">
            <g id="Group_142" data-name="Group 142" clip-path="url(#clip-path-2)">
              <g id="Group_141" data-name="Group 141" transform="translate(0 0)">
                <path id="Path_329" data-name="Path 329" d="M-636.879-325.85a83.006,83.006,0,0,1-7.225,13.895,59.755,59.755,0,0,1-4.376,6.018.322.322,0,0,1-.048.053H-1137.81l.066-.053c.44-.343,3.025-2.435,7.044-6.018,2.884-2.567,6.5-5.9,10.566-9.919,33.235-32.689,97.077-110.065,43.907-180.947-49.428-65.894,3.791-77.851,38.9-79.247a100.292,100.292,0,0,1,39.562,6.467,351.493,351.493,0,0,0,84.481,19.944c1.268.141,2.545.282,3.839.409a369.877,369.877,0,0,0,61.539,1.118c.6-.035,1.211-.079,1.823-.123a365.69,365.69,0,0,0,60.192-9.311c1.281-.313,2.545-.608,3.8-.9,65.876-15.242,126.605,36.7,111.421,95.409-5.613,21.714-4.187,44.858,14.529,63.582,30.642,30.563,26.931,60.663,19.261,79.625" transform="translate(1137.81 582.145)" fill="#38d29f"/>
              </g>
            </g>
          </g>
        </g>
        <g id="Group_145" data-name="Group 145" transform="translate(0.066 248.881)">
          <path id="Path_330" data-name="Path 330" d="M-636.795-9.426a83,83,0,0,1-7.225,13.895,59.755,59.755,0,0,1-4.376,6.018H-1137.66c.44-.343,3.025-2.435,7.044-6.018,2.884-2.567,6.5-5.9,10.566-9.919l51.568-10.654a10.028,10.028,0,0,1,2.025-.207l54.975-.079h.057l27.23-.035h.062l22.981-.026H-930.7l63.142-.088h27.168l10.844-.123h3.584l31.54-.044H-779.5l36.431-.048h10.848l34.508-.048,29.128-.035a10.319,10.319,0,0,1,2.408.286Z" transform="translate(1137.66 16.84)" fill="#454a69"/>
        </g>
        <g id="Group_149" data-name="Group 149" transform="translate(0.066 270.189)" opacity="0.4">
          <g id="Group_148" data-name="Group 148" transform="translate(0 0)">
            <g id="Group_147" data-name="Group 147" clip-path="url(#clip-path-3)">
              <g id="Group_146" data-name="Group 146" transform="translate(0)">
                <path id="Path_331" data-name="Path 331" d="M-8.956,0h486.6a59.749,59.749,0,0,1-4.376,6.018H-16c.431-.365,3.016-2.457,7.044-6.018" transform="translate(16)"/>
              </g>
            </g>
          </g>
        </g>
        <g id="Group_150" data-name="Group 150" transform="translate(196.907 6.765)">
          <path id="Path_332" data-name="Path 332" d="M-160.067-160.836l-.977.189-44.184,8.488c-12.834,2.465-25.852,4.944-38.888,4-9.444-.687-18.266-3.487-27.34-5.943-5.129-1.391-10.566-1.946-12.305-7.687-2.4-7.925,1.506-19.658,2.426-27.688.881-7.881,1.4-15.959-.167-23.748a42.238,42.238,0,0,0-1.374-5.169c-1.572-4.662-4.042-9.51-2.708-14.242,1.052-3.755,4.262-6.437,7.264-8.92,5.882-4.843,11.887-10.271,14.22-17.531,1.145-3.522,1.36-7.313,2.593-10.808,2.338-6.648,8.211-11.618,14.744-14.251s13.718-3.192,20.767-3.192a140.756,140.756,0,0,1,18.61,1.237c6.727.881,13.516,2.329,19.429,5.666s10.9,8.805,12.274,15.471c1.95,9.426-3.465,19.464-.559,28.617,1.462,4.627,4.843,8.365,7.189,12.6a30.013,30.013,0,0,1,2.2,23.334c-2.809,8.7-9.686,17.509-6.164,25.949,2.241,5.367,7.964,8.233,11.953,12.486q.533.573.995,1.145" transform="translate(285.967 287.34)" fill="#454a69"/>
        </g>
        <g id="Group_154" data-name="Group 154" transform="translate(198.343 60.186)" opacity="0.1">
          <g id="Group_153" data-name="Group 153">
            <g id="Group_152" data-name="Group 152" clip-path="url(#clip-path-4)">
              <g id="Group_151" data-name="Group 151" transform="translate(0 0)">
                <path id="Path_333" data-name="Path 333" d="M-157-91.506v1.3l-44.184,8.488c-12.834,2.465-25.852,4.944-38.888,4-9.444-.687-18.266-3.487-27.34-5.943-5.129-1.391-10.566-1.946-12.305-7.687-2.4-7.925,1.506-19.658,2.426-27.688.881-7.881,14.436-36.652,12.869-44.44l81.008,3.522c.546,4.3,21.956,25.892,20.622,30.017-2.809,8.7-9.686,17.509-6.164,25.949,2.245,5.367,7.969,8.233,11.957,12.486" transform="translate(280.485 163.48)"/>
              </g>
            </g>
          </g>
        </g>
        <g id="Group_155" data-name="Group 155" transform="translate(212.735 84.488)">
          <path id="Path_334" data-name="Path 334" d="M-33.47-32.913c.48,2.725.735,5.723-.656,8.1-1.853,3.187-5.9,4.2-9.51,4.927l-12.547,2.509a4.87,4.87,0,0,0-2.4.951A4.2,4.2,0,0,0-59.7-13.682c-.506,4.543,1.1,9.021,2.567,13.349,2.963,8.766,5.45,17.716,9.2,26.173s8.889,16.532,16.228,22.185,17.051,8.664,26.037,6.454C2.155,52.555,8.574,47.03,14.108,41.17c4.565-4.843,8.836-10.126,11.051-16.408,1.528-4.315,2.025-8.911,2.505-13.463Q28.778.829,29.892-9.641c.348-3.276.577-6.96-1.55-9.474a11.285,11.285,0,0,0-3.5-2.523c-4.816-2.558-9.888-4.671-14.37-7.753S2.019-36.717.658-41.982c-.814-3.161-.669-6.6-2.056-9.549a12.893,12.893,0,0,0-8.365-6.52,28.531,28.531,0,0,0-10.866-.44c-3.628.409-17.61,1.457-19.112,5.547-.806,2.2,2.536,6.925,3.328,9.091a63.491,63.491,0,0,1,2.941,10.94" transform="translate(59.796 58.8)" fill="#eeb7b8"/>
        </g>
        <g id="Group_159" data-name="Group 159" transform="translate(212.735 84.488)" opacity="0.1">
          <g id="Group_158" data-name="Group 158">
            <g id="Group_157" data-name="Group 157" clip-path="url(#clip-path-5)">
              <g id="Group_156" data-name="Group 156" transform="translate(0 0)">
                <path id="Path_335" data-name="Path 335" d="M-33.47-32.913c.48,2.725.735,5.723-.656,8.1-1.853,3.187-5.9,4.2-9.51,4.927l-12.547,2.509a4.87,4.87,0,0,0-2.4.951A4.2,4.2,0,0,0-59.7-13.682c-.506,4.543,1.1,9.021,2.567,13.349,2.963,8.766,5.45,17.716,9.2,26.173s8.889,16.532,16.228,22.185,17.051,8.664,26.037,6.454C2.155,52.555,8.574,47.03,14.108,41.17c4.565-4.843,8.836-10.126,11.051-16.408,1.528-4.315,2.025-8.911,2.505-13.463Q28.778.829,29.892-9.641c.348-3.276.577-6.96-1.55-9.474a11.285,11.285,0,0,0-3.5-2.523c-4.816-2.558-9.888-4.671-14.37-7.753S2.019-36.717.658-41.982c-.814-3.161-.669-6.6-2.056-9.549a12.893,12.893,0,0,0-8.365-6.52,28.531,28.531,0,0,0-10.866-.44c-3.628.409-17.61,1.457-19.112,5.547-.806,2.2,2.536,6.925,3.328,9.091a63.491,63.491,0,0,1,2.941,10.94" transform="translate(59.796 58.8)"/>
              </g>
            </g>
          </g>
        </g>
        <g id="Group_160" data-name="Group 160" transform="translate(207.009 115.03)">
          <path id="Path_336" data-name="Path 336" d="M-79.143-54.948l7.357-15.576c3.447-7.3,6.969-14.969,6.6-23.03-.07-1.6-.088-3.606,1.321-4.332a3.781,3.781,0,0,1,1.933-.247,78.187,78.187,0,0,1,22.678,4.587A9,9,0,0,1-35.4-91.318a9.2,9.2,0,0,1,1.73,4.094,119.52,119.52,0,0,1,2.523,14.912c1.321,12.424.665,24.958,0,37.422L-33.1,3.162a3.634,3.634,0,0,1-.321,1.567A3.384,3.384,0,0,1-35.98,6.072a55.537,55.537,0,0,1-11.478.37c-26.944-1.021-54.029-2.589-80.8.678q.18-5.939-.189-11.887c-1.061-17.122-5.5-33.825-9.857-50.414-2.54-9.686-5-20.252-.911-29.378a12.587,12.587,0,0,1,2.549-3.883,14.485,14.485,0,0,1,6.463-3.245A41.125,41.125,0,0,1-117.745-93.1l27.758,60.434c1.268,2.765,2.311,5.675,3.575,8.4,1.136-4.715-.229-10.24,1.136-15.352a96.677,96.677,0,0,1,6.133-15.339" transform="translate(141.392 98.167)" fill="#fff"/>
        </g>
        <g id="Group_161" data-name="Group 161" transform="translate(175.25 113.992)">
          <path id="Path_337" data-name="Path 337" d="M-115.833-109.136c4.966.313,9.791-2.232,13.208-5.829s5.671-8.158,7.577-12.768a125.917,125.917,0,0,0,6.511-20.3c1.321-5.9,2.259-12.006,1.347-17.985-1.259-8.255-5.93-15.757-6.727-24.069-.136-1.453-.048-3.152,1.118-4.028a4.644,4.644,0,0,1,2.571-.669c8.3-.493,17.425-.4,23.858,4.869,1.959,1.6,3.548,3.606,5.464,5.257,4.561,3.962,11.006,5.979,13.934,11.24a39,39,0,0,1,2.223,5.877c1.682,4.667,4.592,8.77,7.484,12.807-2.8,11.834-6.027,23.677-8.832,35.511a155.287,155.287,0,0,1-5.877,20.56c-1.691,4.359-3.817,8.805-3.3,13.472a30.761,30.761,0,0,0,1.352,5.362,61.637,61.637,0,0,1,2.593,19.164l-125.624.308c6.018-8.629,7.784-19.213,7.172-29.713a32.468,32.468,0,0,0-3.962-14.449c-3.989-6.824-11.006-11.271-17.923-15.079-4.843-2.642-10.042,12.222-15.277,10.518.845-5.979,1.233-29.057.88-35.075a16.072,16.072,0,0,1,.317-5.882c.414-1.29,1.175-2.443,1.691-3.7,2.065-5.023.1-11.447,3.434-15.722,2.307-2.972,6.353-3.817,9.642-5.649,3.377-1.884,5.988-4.843,8.928-7.37a39.7,39.7,0,0,1,20.322-9.074,25.6,25.6,0,0,1,3.879,11.447c.225,2.558.062,5.151.418,7.7a37.892,37.892,0,0,0,3.328,9.871c5.886,13.291,11.795,26.622,19.253,39.1a41.422,41.422,0,0,0,7.458,9.787,17.043,17.043,0,0,0,11.557,4.508" transform="translate(206.94 194.975)" fill="#38d29f"/>
        </g>
        <g id="Group_165" data-name="Group 165" transform="translate(175.25 113.992)" opacity="0.1">
          <g id="Group_164" data-name="Group 164">
            <g id="Group_163" data-name="Group 163" clip-path="url(#clip-path-6)">
              <g id="Group_162" data-name="Group 162" transform="translate(0 0)">
                <path id="Path_338" data-name="Path 338" d="M-115.833-109.136c4.966.313,9.791-2.232,13.208-5.829s5.671-8.158,7.577-12.768a125.917,125.917,0,0,0,6.511-20.3c1.321-5.9,2.259-12.006,1.347-17.985-1.259-8.255-5.93-15.757-6.727-24.069-.136-1.453-.048-3.152,1.118-4.028a4.644,4.644,0,0,1,2.571-.669c8.3-.493,17.425-.4,23.858,4.869,1.959,1.6,3.548,3.606,5.464,5.257,4.561,3.962,11.006,5.979,13.934,11.24a39,39,0,0,1,2.223,5.877c1.682,4.667,4.592,8.77,7.484,12.807-2.8,11.834-6.027,23.677-8.832,35.511a155.287,155.287,0,0,1-5.877,20.56c-1.691,4.359-3.817,8.805-3.3,13.472a30.761,30.761,0,0,0,1.352,5.362,61.637,61.637,0,0,1,2.593,19.164l-125.624.308c6.018-8.629,7.784-19.213,7.172-29.713a32.468,32.468,0,0,0-3.962-14.449c-3.989-6.824-11.006-11.271-17.923-15.079-4.843-2.642-10.042,12.222-15.277,10.518.845-5.979,1.233-29.057.88-35.075a16.072,16.072,0,0,1,.317-5.882c.414-1.29,1.175-2.443,1.691-3.7,2.065-5.023.1-11.447,3.434-15.722,2.307-2.972,6.353-3.817,9.642-5.649,3.377-1.884,5.988-4.843,8.928-7.37a39.7,39.7,0,0,1,20.322-9.074,25.6,25.6,0,0,1,3.879,11.447c.225,2.558.062,5.151.418,7.7a37.892,37.892,0,0,0,3.328,9.871c5.886,13.291,11.795,26.622,19.253,39.1a41.422,41.422,0,0,0,7.458,9.787,17.043,17.043,0,0,0,11.557,4.508" transform="translate(206.94 194.975)"/>
              </g>
            </g>
          </g>
        </g>
        <g id="Group_166" data-name="Group 166" transform="translate(221.974 33.898)">
          <path id="Path_339" data-name="Path 339" d="M-47.981,0A37.739,37.739,0,0,1-10.242,37.739,37.739,37.739,0,0,1-47.981,75.478,37.739,37.739,0,0,1-85.72,37.739,37.739,37.739,0,0,1-47.981,0" transform="translate(85.72)" fill="#eeb7b8"/>
        </g>
        <g id="Group_167" data-name="Group 167" transform="translate(210.01 16.173)">
          <path id="Path_340" data-name="Path 340" d="M-38.016-134.455c1.035-9.765-3.025-19.319-7.621-28-2.2-4.147-4.561-8.281-5.666-12.838s-.788-9.717,2.038-13.463c2.4-3.187,6.216-4.909,9.743-6.78,9.954-5.283,19.054-13.049,23.431-23.435-2.474,1.347-1.831,5.367.352,7.141s5.16,2.118,7.845,2.963c9.791,3.082,15.664,12.847,20.375,21.969a10.5,10.5,0,0,1,1.545,4.737,9.61,9.61,0,0,1-1.576,4.592c-2.325,4.138-5.169,8.114-6.225,12.741-1.211,5.283.066,10.839,1.726,16.021,1.761,5.512,4.1,11.068,8.325,15.022s10.782,5.917,15.981,3.364c-5.191-8.924-10.566-18.9-8.541-29.013.977-4.843,3.606-9.245,4.724-14.062,2.131-9.188-1.418-18.641-4.9-27.411L13.134-227.077c-1.589-4-3.4-8.272-7.044-10.54-2.465-1.528-5.45-1.924-8.339-2.2-9.3-.828-18.931-.555-27.587,2.906-15.77,6.3-25.658,21.832-33.5,36.9-2.351,4.513-4.671,9.307-4.574,14.4a39.949,39.949,0,0,0,1.466,8.228c2.58,11.077,2.721,22.554,2.853,33.926.1,8.726-.352,16.95-4.169,24.9,5.23,1.039,12.816,3.843,17.993,1.792,6.749-2.668,10.905-10.888,11.755-17.681" transform="translate(67.917 240.209)" fill="#454a69"/>
        </g>
        <g id="Group_175" data-name="Group 175" transform="translate(209.989 36.72)" opacity="0.1">
          <g id="Group_174" data-name="Group 174">
            <g id="Group_173" data-name="Group 173" clip-path="url(#clip-path-7)">
              <g id="Group_168" data-name="Group 168" transform="translate(0 31.778)">
                <path id="Path_341" data-name="Path 341" d="M-5.494-56.243q.026-1.862,0-3.76c-.132-11.372-.273-22.849-2.853-33.926a57.249,57.249,0,0,1-1.347-6.551A17.081,17.081,0,0,0-9.812-98.2a39.949,39.949,0,0,0,1.466,8.228C-5.78-78.956-5.621-67.549-5.494-56.243" transform="translate(9.814 100.48)"/>
              </g>
              <g id="Group_169" data-name="Group 169" transform="translate(91.216 38.325)">
                <path id="Path_342" data-name="Path 342" d="M-6.564-9.975a26.634,26.634,0,0,0,.572-7.845,24.434,24.434,0,0,1-.572,3.883C-7.682-9.094-10.31-4.731-11.288.125a23.328,23.328,0,0,0-.352,6.507,23.035,23.035,0,0,1,.352-2.545C-10.31-.769-7.682-5.149-6.564-9.975" transform="translate(11.726 17.82)"/>
              </g>
              <g id="Group_170" data-name="Group 170" transform="translate(16.044 0)">
                <path id="Path_343" data-name="Path 343" d="M-83.374-45.115a6.351,6.351,0,0,0,.343-1.942,10.608,10.608,0,0,0-1.545-4.737c-4.711-9.122-10.566-18.878-20.375-21.969-2.686-.845-5.657-1.189-7.845-2.963a5.581,5.581,0,0,1-1.928-3.874c-4.772,8.761-12.97,15.462-21.854,20.168-3.522,1.871-7.339,3.593-9.743,6.78a15.018,15.018,0,0,0-2.523,10.659,13.473,13.473,0,0,1,2.523-6.7c2.4-3.187,6.216-4.909,9.743-6.78,8.884-4.706,17.082-11.407,21.854-20.168a5.581,5.581,0,0,0,1.928,3.874c2.2,1.761,5.16,2.118,7.845,2.963,9.791,3.082,15.664,12.847,20.375,21.969a17.34,17.34,0,0,1,1.2,2.716" transform="translate(148.952 80.6)"/>
              </g>
              <g id="Group_171" data-name="Group 171" transform="translate(73.691 57.339)">
                <path id="Path_344" data-name="Path 344" d="M-13.38-31.25c-4.226-3.962-6.555-9.51-8.325-15.022a43.493,43.493,0,0,1-2.113-9.558c-.409,4.521.713,9.149,2.113,13.52,1.761,5.512,4.1,11.068,8.325,15.022S-2.6-21.371,2.6-23.924c-.625-1.07-1.246-2.157-1.862-3.254-4.83,1.36-10.377-.577-14.119-4.072" transform="translate(23.904 55.83)"/>
              </g>
              <g id="Group_172" data-name="Group 172" transform="translate(0.156 80.092)">
                <path id="Path_345" data-name="Path 345" d="M-37.844-1.467c-.85,6.793-5.006,15.013-11.773,17.7C-54.314,18.094-61,15.955-66.1,14.77A38.084,38.084,0,0,1-67.61,18.4c5.23,1.039,12.816,3.843,17.993,1.792C-42.85,17.509-38.694,9.289-37.844,2.5a30.59,30.59,0,0,0,.1-5.116c-.026.383-.066.77-.1,1.153" transform="translate(67.61 2.62)"/>
              </g>
            </g>
          </g>
        </g>
        <g id="Group_176" data-name="Group 176" transform="translate(262.073 224.894)">
          <path id="Path_346" data-name="Path 346" d="M-39.646-2.834C-46.448-3.913-53.352-6-60.1-4.6A28.428,28.428,0,0,0-70.83.512c1.787,1.431,3.874,2.708,5.01,4.7a18.5,18.5,0,0,1,1.576,4.345A36.979,36.979,0,0,1-62.7,17.638a12.3,12.3,0,0,1-2.078,7.823c8.576.845,16.888-1.268,25.253-3.333a6.913,6.913,0,0,0,2.672-1.079c1.321-1.039,1.708-2.888,1.717-4.574a31.32,31.32,0,0,0-1.7-8.836c-1.021-3.465-1.779-7.031-2.8-10.474" transform="translate(70.83 5.064)" fill="#fff"/>
        </g>
        <g id="Group_177" data-name="Group 177" transform="translate(287.397 152.584)">
          <path id="Path_347" data-name="Path 347" d="M-65.842-.357c3.377.44,6,3.165,7.925,5.966,5.411,7.793,7.744,17.241,10.342,26.367a350.964,350.964,0,0,0,11.39,33.513,50.391,50.391,0,0,0,3.416,7.352c1.087,1.818,2.408,3.566,2.888,5.631,1.162,4.993-2.954,9.686-7.247,12.468a28.682,28.682,0,0,1-7.418,3.575,44.184,44.184,0,0,1-7.889,1.347L-76.875,98.5c-11.249,1.224-22.6,2.448-33.852,1.268-.709-2.465.682-4.209.581-6.776a15.134,15.134,0,0,0-1.6-5.235,33.465,33.465,0,0,1-2.611-9.47,12.838,12.838,0,0,0-.63-3.553,3.33,3.33,0,0,0-2.642-2.2c6.6-.656,11.618-1.9,18.222-2.562,2.452-.247,5-.524,7.093-1.827,2.593-1.616,4.046-4.53,5.2-7.357,2.857-7,4.7-14.713,3.2-22.127-1.233-6.08-4.671-11.742-4.654-17.945a26.85,26.85,0,0,1,2.747-10.654c1.576-3.575,3.632-7.229,7.093-9.043S-69.747-.885-65.842-.357" transform="translate(117.63 0.638)" fill="#38d29f"/>
        </g>
        <g id="Group_181" data-name="Group 181" transform="translate(287.397 152.584)" opacity="0.08">
          <g id="Group_180" data-name="Group 180">
            <g id="Group_179" data-name="Group 179" clip-path="url(#clip-path-8)">
              <g id="Group_178" data-name="Group 178" transform="translate(0 0)">
                <path id="Path_348" data-name="Path 348" d="M-65.842-.357c3.377.44,6,3.165,7.925,5.966,5.411,7.793,7.744,17.241,10.342,26.367a350.964,350.964,0,0,0,11.39,33.513,50.391,50.391,0,0,0,3.416,7.352c1.087,1.818,2.408,3.566,2.888,5.631,1.162,4.993-2.954,9.686-7.247,12.468a28.682,28.682,0,0,1-7.418,3.575,44.184,44.184,0,0,1-7.889,1.347L-76.875,98.5c-11.249,1.224-22.6,2.448-33.852,1.268-.709-2.465.682-4.209.581-6.776a15.134,15.134,0,0,0-1.6-5.235,33.465,33.465,0,0,1-2.611-9.47,12.838,12.838,0,0,0-.63-3.553,3.33,3.33,0,0,0-2.642-2.2c6.6-.656,11.618-1.9,18.222-2.562,2.452-.247,5-.524,7.093-1.827,2.593-1.616,4.046-4.53,5.2-7.357,2.857-7,4.7-14.713,3.2-22.127-1.233-6.08-4.671-11.742-4.654-17.945a26.85,26.85,0,0,1,2.747-10.654c1.576-3.575,3.632-7.229,7.093-9.043S-69.747-.885-65.842-.357" transform="translate(117.63 0.638)"/>
              </g>
            </g>
          </g>
        </g>
        <g id="Group_182" data-name="Group 182" transform="translate(182.824 78.927)">
          <path id="Path_349" data-name="Path 349" d="M-4.223-86.732c1.6-3.8,3.223-7.713,3.267-11.83.048-4.451-1.761-8.678-3.143-12.9A74.632,74.632,0,0,1-7.495-127.4a2.2,2.2,0,0,1,.22-1.528,2.624,2.624,0,0,1,1.691-.757c3.047-.7,5.349-3.157,7.251-5.635a61.781,61.781,0,0,0,7.423-12.4c1.457-3.245,3.43-7.2,6.987-7.233a201.844,201.844,0,0,1-5.318,19.922c3.72-.951,7.255-2.333,10.976-3.284a6.583,6.583,0,0,1,2.254-.3,3.4,3.4,0,0,1,2.3,5.076c1.818,2.131,4.843,2.7,7.22,4.165s4.086,5.081,1.972,6.916a5.9,5.9,0,0,0-1.237,1.065c-1.021,1.576,1.479,3.386,1.272,5.252-.167,1.528-2.126,2.241-3.61,1.836s-2.642-1.514-3.962-2.329-3.047-1.321-4.328-.475c-.343,4.143-.713,8.365-2.505,12.138-.656,1.378-1.5,2.668-2.025,4.1a20.187,20.187,0,0,0-.933,4.812l-1.6,14.612C8.927-79.917,2.09-82.2-4.223-86.732" transform="translate(7.545 154.95)" fill="#eeb7b8"/>
        </g>
        <g id="Group_183" data-name="Group 183" transform="translate(182.655 142.091)">
          <path id="Path_350" data-name="Path 350" d="M-2.071-23.078l-1.4-9.505A15.476,15.476,0,0,1-3.7-34.925a15.32,15.32,0,0,1,1.906-6.3c7.771,3.628,16.171,4.918,24.743,4.922,1.131,0,2.421-.106,3.126-.991,1.457,1.677,1.5,4.376.881,6.507s-1.814,4.05-2.606,6.128a8.737,8.737,0,0,1-1.492,3.011c-1.189,1.281-3.117,1.5-4.869,1.492a31.133,31.133,0,0,1-5.494-.524c-4.693-.872-9.871-3.236-14.564-2.4" transform="translate(3.7 41.23)" fill="#fff"/>
        </g>
        <g id="Group_184" data-name="Group 184" transform="translate(170.444 155.282)">
          <path id="Path_351" data-name="Path 351" d="M-54.444-5.816q-9.047-1.03-17.976-2.906A36.355,36.355,0,0,0-81.26-9.9c-1.937.079-4.02.467-5.723-.493a27.555,27.555,0,0,1-.225,17.144c-1.175,3.3-2.967,6.379-3.83,9.778-1.8,7.11.669,14.863-1.576,21.846a5.524,5.524,0,0,1-1.356,2.43c-.687.63-1.625.955-2.259,1.638-.933,1-.991,2.514-.995,3.883l-.04,12.129c-.026,7.722.075,15.911,4.152,22.453A21.319,21.319,0,0,0-70.156,90a17.063,17.063,0,0,0,6.234-3.051c2.959-2.351,4.843-5.75,6.688-9.061,2.2-3.962,4.4-8.013,5.111-12.473a35.441,35.441,0,0,0-.141-9.554c-1.99-17.61-6.309-35.071-5.38-52.747a15.987,15.987,0,0,1,3.2-8.928" transform="translate(97.266 10.39)" fill="#38d29f"/>
        </g>
        <g id="Group_185" data-name="Group 185" transform="translate(185.227 230.979)">
          <path id="Path_352" data-name="Path 352" d="M-67.7-2.492a53.365,53.365,0,0,1-9.188,0c-2.2-.264-4.35-.806-6.533-1.175A41.873,41.873,0,0,0-117.141,5.7c-1.691,1.444-3.4,3.659-2.465,5.679,1,2.175,4.072,2.113,6.437,1.708a19.372,19.372,0,0,0-6.6,5.164,3.9,3.9,0,0,0-1.158,2.8c.269,2.179,3.227,2.576,5.415,2.386a1.823,1.823,0,0,0,.674,2.642,4.518,4.518,0,0,0,3.06.225,22.674,22.674,0,0,0,6.5-2.25,2.477,2.477,0,0,0,1.321,2.879,5.44,5.44,0,0,0,3.394.313c5.38-.881,9.871-4.623,15.118-6.093,8.391-2.347,17.17,1.4,25.892,1.66A18.065,18.065,0,0,0-51.542,21.5c3.051-1.387,5.512-3.989,8.735-4.913,3.579-1.021,7.687.154,10.962-1.611,2.382-1.281.233-11.156-.374-13.058-1.114-3.478-2.232-5.785-5.943-6.137-9.391-.92-20.076,1.184-29.537,1.73" transform="translate(120.948 4.452)" fill="#eeb7b8"/>
        </g>
        <g id="Group_186" data-name="Group 186" transform="translate(261.901 228.602)">
          <path id="Path_353" data-name="Path 353" d="M0-2.088S14.216,9.944,6.014,23.073L21.863,17.6V6.114c0-.546-6.018-8.748-6.018-8.748l-7.11-1.1Z" transform="translate(0 3.73)" fill="#fff"/>
        </g>
        <g id="Group_187" data-name="Group 187" transform="translate(102.048 229.501)">
          <path id="Path_354" data-name="Path 354" d="M-13.994,0h5.332A11.007,11.007,0,0,1,2.345,11.006V27.345H-25V11.006A11.007,11.007,0,0,1-13.994,0Z" transform="translate(25)" fill="#3e3c55"/>
        </g>
        <g id="Group_191" data-name="Group 191" transform="translate(102.048 229.501)" opacity="0.1">
          <g id="Group_190" data-name="Group 190" transform="translate(0 0)">
            <g id="Group_189" data-name="Group 189" clip-path="url(#clip-path-9)">
              <g id="Group_188" data-name="Group 188" transform="translate(0)">
                <path id="Path_355" data-name="Path 355" d="M-13.994,0h5.332A11.007,11.007,0,0,1,2.345,11.006V27.345H-25V11.006A11.007,11.007,0,0,1-13.994,0Z" transform="translate(25)"/>
              </g>
            </g>
          </g>
        </g>
        <g id="Group_192" data-name="Group 192" transform="translate(112.438 231.138)">
          <path id="Path_356" data-name="Path 356" d="M-2.782,0A2.188,2.188,0,0,1-.594,2.188,2.188,2.188,0,0,1-2.782,4.376,2.188,2.188,0,0,1-4.97,2.188,2.188,2.188,0,0,1-2.782,0" transform="translate(4.97)" fill="#3e3c55"/>
        </g>
        <g id="Group_193" data-name="Group 193" transform="translate(112.438 228.404)">
          <path id="Path_357" data-name="Path 357" d="M-2.782,0A2.188,2.188,0,0,1-.594,2.188,2.188,2.188,0,0,1-2.782,4.376,2.188,2.188,0,0,1-4.97,2.188,2.188,2.188,0,0,1-2.782,0" transform="translate(4.97)" fill="#3e3c55"/>
        </g>
        <g id="Group_194" data-name="Group 194" transform="translate(112.438 225.67)">
          <path id="Path_358" data-name="Path 358" d="M-2.782,0A2.188,2.188,0,0,1-.594,2.188,2.188,2.188,0,0,1-2.782,4.376,2.188,2.188,0,0,1-4.97,2.188,2.188,2.188,0,0,1-2.782,0" transform="translate(4.97)" fill="#3e3c55"/>
        </g>
        <g id="Group_195" data-name="Group 195" transform="translate(112.438 222.936)">
          <path id="Path_359" data-name="Path 359" d="M-2.782,0A2.188,2.188,0,0,1-.594,2.188,2.188,2.188,0,0,1-2.782,4.376,2.188,2.188,0,0,1-4.97,2.188,2.188,2.188,0,0,1-2.782,0" transform="translate(4.97)" fill="#3e3c55"/>
        </g>
        <g id="Group_196" data-name="Group 196" transform="translate(112.438 220.202)">
          <path id="Path_360" data-name="Path 360" d="M-2.782,0A2.188,2.188,0,0,1-.594,2.188,2.188,2.188,0,0,1-2.782,4.376,2.188,2.188,0,0,1-4.97,2.188,2.188,2.188,0,0,1-2.782,0" transform="translate(4.97)" fill="#3e3c55"/>
        </g>
        <g id="Group_197" data-name="Group 197" transform="translate(112.438 217.468)">
          <path id="Path_361" data-name="Path 361" d="M-2.782,0A2.188,2.188,0,0,1-.594,2.188,2.188,2.188,0,0,1-2.782,4.376,2.188,2.188,0,0,1-4.97,2.188,2.188,2.188,0,0,1-2.782,0" transform="translate(4.97)" fill="#3e3c55"/>
        </g>
        <g id="Group_198" data-name="Group 198" transform="translate(112.438 214.73)">
          <path id="Path_362" data-name="Path 362" d="M-2.782,0A2.188,2.188,0,0,1-.594,2.188,2.188,2.188,0,0,1-2.782,4.376,2.188,2.188,0,0,1-4.97,2.188,2.188,2.188,0,0,1-2.782,0" transform="translate(4.97)" fill="#3e3c55"/>
        </g>
        <g id="Group_199" data-name="Group 199" transform="translate(115.722 215.826)">
          <path id="Path_363" data-name="Path 363" d="M-2.782,0A2.188,2.188,0,0,1-.594,2.188,2.188,2.188,0,0,1-2.782,4.376,2.188,2.188,0,0,1-4.97,2.188,2.188,2.188,0,0,1-2.782,0" transform="translate(4.97)" fill="#3e3c55"/>
        </g>
        <g id="Group_200" data-name="Group 200" transform="translate(117.91 214.73)">
          <path id="Path_364" data-name="Path 364" d="M-2.782,0A2.188,2.188,0,0,1-.594,2.188,2.188,2.188,0,0,1-2.782,4.376,2.188,2.188,0,0,1-4.97,2.188,2.188,2.188,0,0,1-2.782,0" transform="translate(4.97)" fill="#3e3c55"/>
        </g>
        <g id="Group_201" data-name="Group 201" transform="translate(120.098 213.638)">
          <path id="Path_365" data-name="Path 365" d="M-2.782,0A2.188,2.188,0,0,1-.594,2.188,2.188,2.188,0,0,1-2.782,4.376,2.188,2.188,0,0,1-4.97,2.188,2.188,2.188,0,0,1-2.782,0" transform="translate(4.97)" fill="#3e3c55"/>
        </g>
        <g id="Group_202" data-name="Group 202" transform="translate(112.438 211.996)">
          <path id="Path_366" data-name="Path 366" d="M-2.782,0A2.188,2.188,0,0,1-.594,2.188,2.188,2.188,0,0,1-2.782,4.376,2.188,2.188,0,0,1-4.97,2.188,2.188,2.188,0,0,1-2.782,0" transform="translate(4.97)" fill="#3e3c55"/>
        </g>
        <g id="Group_203" data-name="Group 203" transform="translate(112.438 209.262)">
          <path id="Path_367" data-name="Path 367" d="M-2.782,0A2.188,2.188,0,0,1-.594,2.188,2.188,2.188,0,0,1-2.782,4.376,2.188,2.188,0,0,1-4.97,2.188,2.188,2.188,0,0,1-2.782,0" transform="translate(4.97)" fill="#3e3c55"/>
        </g>
        <g id="Group_204" data-name="Group 204" transform="translate(112.438 206.528)">
          <path id="Path_368" data-name="Path 368" d="M-2.782,0A2.188,2.188,0,0,1-.594,2.188,2.188,2.188,0,0,1-2.782,4.376,2.188,2.188,0,0,1-4.97,2.188,2.188,2.188,0,0,1-2.782,0" transform="translate(4.97)" fill="#3e3c55"/>
        </g>
        <g id="Group_205" data-name="Group 205" transform="translate(112.438 203.794)">
          <path id="Path_369" data-name="Path 369" d="M-2.782,0A2.188,2.188,0,0,1-.594,2.188,2.188,2.188,0,0,1-2.782,4.376,2.188,2.188,0,0,1-4.97,2.188,2.188,2.188,0,0,1-2.782,0" transform="translate(4.97)" fill="#3e3c55"/>
        </g>
        <g id="Group_206" data-name="Group 206" transform="translate(105.332 191.209)">
          <path id="Path_370" data-name="Path 370" d="M-23.369-9.81q-.819.119-1.638.172A12.578,12.578,0,0,0-23.6-11.082a9.252,9.252,0,0,0-1.321-2.567,4.5,4.5,0,0,1-1.761.555c-.542.079-1.087.136-1.633.176a27.279,27.279,0,0,0,2.091-2.2,9.29,9.29,0,0,0-13.121.645A9.29,9.29,0,0,0-38.7-1.354,9.29,9.29,0,0,0-25.578-2a9.29,9.29,0,0,0,2.406-6.249,9.131,9.131,0,0,0-.141-1.6Z" transform="translate(41.75 17.526)" fill="#38d29f"/>
        </g>
        <g id="Group_207" data-name="Group 207" transform="translate(122.295 208.722)">
          <path id="Path_371" data-name="Path 371" d="M-11.078-1.363a4.245,4.245,0,0,1-1.84.612c-.542.079-1.087.141-1.633.176a16.016,16.016,0,0,0,1.62-1.682,5.477,5.477,0,0,0-6.681,3.918A5.477,5.477,0,0,0-15.7,8.342,5.477,5.477,0,0,0-9.014,4.424a5.476,5.476,0,0,0-2.064-5.8Z" transform="translate(19.791 2.435)" fill="#38d29f"/>
        </g>
        <g id="Group_208" data-name="Group 208" transform="translate(109.158 215.826)">
          <path id="Path_372" data-name="Path 372" d="M-2.782,0A2.188,2.188,0,0,1-.594,2.188,2.188,2.188,0,0,1-2.782,4.376,2.188,2.188,0,0,1-4.97,2.188,2.188,2.188,0,0,1-2.782,0" transform="translate(4.97)" fill="#3e3c55"/>
        </g>
        <g id="Group_209" data-name="Group 209" transform="translate(106.97 214.73)">
          <path id="Path_373" data-name="Path 373" d="M-2.782,0A2.188,2.188,0,0,1-.594,2.188,2.188,2.188,0,0,1-2.782,4.376,2.188,2.188,0,0,1-4.97,2.188,2.188,2.188,0,0,1-2.782,0" transform="translate(4.97)" fill="#3e3c55"/>
        </g>
        <g id="Group_210" data-name="Group 210" transform="translate(104.782 213.638)">
          <path id="Path_374" data-name="Path 374" d="M-2.782,0A2.188,2.188,0,0,1-.594,2.188,2.188,2.188,0,0,1-2.782,4.376,2.188,2.188,0,0,1-4.97,2.188,2.188,2.188,0,0,1-2.782,0" transform="translate(4.97)" fill="#3e3c55"/>
        </g>
        <g id="Group_211" data-name="Group 211" transform="translate(96.006 208.722)">
          <path id="Path_375" data-name="Path 375" d="M-2.85-1.363a4.245,4.245,0,0,0,1.84.612C-.469-.672.077-.61.623-.575A15.59,15.59,0,0,1-1-2.257a5.477,5.477,0,1,1-1.853.881Z" transform="translate(5.092 2.435)" fill="#38d29f"/>
        </g>
        <g id="Group_212" data-name="Group 212" transform="translate(102.034 231.121)">
          <path id="Path_376" data-name="Path 376" d="M-14.01,0h5.332A11.007,11.007,0,0,1,2.328,11.006V25.478A1.867,1.867,0,0,1,.461,27.345H-23.163a1.867,1.867,0,0,1-1.867-1.867V11.006A11.007,11.007,0,0,1-14.024,0Z" transform="translate(25.03)" fill="#3e3c55"/>
        </g>
        <g id="Group_218" data-name="Group 218" transform="translate(105.409 191.287)" opacity="0.1">
          <g id="Group_217" data-name="Group 217" transform="translate(0 0)">
            <g id="Group_216" data-name="Group 216" clip-path="url(#clip-path-10)">
              <g id="Group_213" data-name="Group 213" transform="translate(17.749 8.236)">
                <path id="Path_377" data-name="Path 377" d="M-.9,0a8.223,8.223,0,0,1-.7.669A7.156,7.156,0,0,0-.852.6C-.86.4-.874.2-.9,0" transform="translate(1.6)"/>
              </g>
              <g id="Group_214" data-name="Group 214" transform="translate(14.465 3.798)">
                <path id="Path_378" data-name="Path 378" d="M0-2.317c.55-.035,1.092-.092,1.638-.172A5.282,5.282,0,0,0,3.06-2.876,9.634,9.634,0,0,0,2.294-4.14a3.308,3.308,0,0,1-.881.374A12.693,12.693,0,0,1,0-2.317" transform="translate(0 4.14)"/>
              </g>
              <g id="Group_215" data-name="Group 215" transform="translate(0 0)">
                <path id="Path_379" data-name="Path 379" d="M-1.291-13.119a9.28,9.28,0,0,1,9.263-9.3,9.281,9.281,0,0,1,5.046,1.48l.141-.15a9.289,9.289,0,0,0-13.115.765A9.289,9.289,0,0,0,.808-7.208l.1.09a9.245,9.245,0,0,1-2.2-6" transform="translate(2.306 23.437)"/>
              </g>
            </g>
          </g>
        </g>
        <g id="Group_223" data-name="Group 223" transform="translate(122.286 208.715)" opacity="0.1">
          <g id="Group_222" data-name="Group 222">
            <g id="Group_221" data-name="Group 221" clip-path="url(#clip-path-11)">
              <g id="Group_219" data-name="Group 219" transform="translate(5.248 1.067)">
                <path id="Path_380" data-name="Path 380" d="M0-2.407c.546-.035,1.092-.092,1.633-.172a4.249,4.249,0,0,0,1.84-.616A5.471,5.471,0,0,1,5.675.679,5.047,5.047,0,0,0,5.706.1,5.45,5.45,0,0,0,3.5-4.3a4.245,4.245,0,0,1-1.84.612l-.44.057A11.155,11.155,0,0,1,0-2.407" transform="translate(0 4.3)"/>
              </g>
              <g id="Group_220" data-name="Group 220" transform="translate(0 0)">
                <path id="Path_381" data-name="Path 381" d="M-6.952-1.39a4.527,4.527,0,0,1,.546.04c.286-.3.568-.63.854-.947a5.459,5.459,0,0,0-6.683,3.865,5.445,5.445,0,0,0-.185,1.418,3.749,3.749,0,0,0,.026.546A5.468,5.468,0,0,1-6.952-1.39" transform="translate(12.42 2.483)"/>
              </g>
            </g>
          </g>
        </g>
        <g id="Group_228" data-name="Group 228" transform="translate(96.016 208.715)" opacity="0.1">
          <g id="Group_227" data-name="Group 227">
            <g id="Group_226" data-name="Group 226" clip-path="url(#clip-path-11)">
              <g id="Group_224" data-name="Group 224" transform="translate(0 1.067)">
                <path id="Path_382" data-name="Path 382" d="M-7.254-2.407C-7.8-2.442-8.346-2.5-8.888-2.579a4.249,4.249,0,0,1-1.84-.616,5.471,5.471,0,0,0-2.2,3.874A4.948,4.948,0,0,1-12.96.1a5.45,5.45,0,0,1,2.2-4.4,4.245,4.245,0,0,0,1.84.612l.44.057A10.433,10.433,0,0,0-7.254-2.407" transform="translate(12.96 4.3)"/>
              </g>
              <g id="Group_225" data-name="Group 225" transform="translate(4.086 0)">
                <path id="Path_383" data-name="Path 383" d="M-1.78-1.39a4.606,4.606,0,0,0-.55.04c-.282-.3-.564-.63-.85-.947A5.459,5.459,0,0,1,3.5,1.569a5.446,5.446,0,0,1,.185,1.418,3.749,3.749,0,0,1-.026.546A5.468,5.468,0,0,0-1.78-1.39" transform="translate(3.18 2.483)"/>
              </g>
            </g>
          </g>
        </g>
        <g id="Group_229" data-name="Group 229" transform="translate(41.825 239.745)">
          <path id="Path_384" data-name="Path 384" d="M-57.01-30.529h-43.013a1.827,1.827,0,0,1-1.827-1.827V-52.713a1.827,1.827,0,0,1,1.827-1.828,1.83,1.83,0,0,1,.784.177c12.358,5.864,25.672,7.876,41.384.092a1.831,1.831,0,0,1,2.453.833,1.831,1.831,0,0,1,.189.8v20.252a1.827,1.827,0,0,1-1.8,1.858Z" transform="translate(101.85 54.541)" fill="#38d29f"/>
        </g>
        <g id="Group_233" data-name="Group 233" transform="translate(41.825 239.745)" opacity="0.1">
          <g id="Group_232" data-name="Group 232" transform="translate(0 0)">
            <g id="Group_231" data-name="Group 231" clip-path="url(#clip-path-13)">
              <g id="Group_230" data-name="Group 230" transform="translate(0 0)">
                <path id="Path_385" data-name="Path 385" d="M-57.01-30.529h-43.013a1.827,1.827,0,0,1-1.827-1.827V-52.713a1.827,1.827,0,0,1,1.827-1.828,1.83,1.83,0,0,1,.784.177c12.358,5.864,25.672,7.876,41.384.092a1.831,1.831,0,0,1,2.453.833,1.831,1.831,0,0,1,.189.8v20.252a1.827,1.827,0,0,1-1.8,1.858Z" transform="translate(101.85 54.541)"/>
              </g>
            </g>
          </g>
        </g>
        <g id="Group_234" data-name="Group 234" transform="translate(62.314 241.616)">
          <path id="Path_386" data-name="Path 386" d="M-3.235,0C-1.83,0-.691,1.492-.691,3.333S-1.83,6.666-3.235,6.666-5.78,5.173-5.78,3.333-4.641,0-3.235,0" transform="translate(5.78)" fill="#3e3c55"/>
        </g>
        <g id="Group_235" data-name="Group 235" transform="translate(62.314 237.544)">
          <path id="Path_387" data-name="Path 387" d="M-3.235,0C-1.83,0-.691,1.492-.691,3.333S-1.83,6.666-3.235,6.666-5.78,5.173-5.78,3.333-4.641,0-3.235,0" transform="translate(5.78)" fill="#3e3c55"/>
        </g>
        <g id="Group_236" data-name="Group 236" transform="translate(62.314 233.467)">
          <path id="Path_388" data-name="Path 388" d="M-3.235,0C-1.83,0-.691,1.492-.691,3.333S-1.83,6.666-3.235,6.666-5.78,5.173-5.78,3.333-4.641,0-3.235,0" transform="translate(5.78)" fill="#3e3c55"/>
        </g>
        <g id="Group_237" data-name="Group 237" transform="translate(62.314 229.395)">
          <path id="Path_389" data-name="Path 389" d="M-3.235,0C-1.83,0-.691,1.492-.691,3.333S-1.83,6.666-3.235,6.666-5.78,5.173-5.78,3.333-4.641,0-3.235,0" transform="translate(5.78)" fill="#3e3c55"/>
        </g>
        <g id="Group_238" data-name="Group 238" transform="translate(62.314 225.318)">
          <path id="Path_390" data-name="Path 390" d="M-3.235,0C-1.83,0-.691,1.492-.691,3.333S-1.83,6.666-3.235,6.666-5.78,5.173-5.78,3.333-4.641,0-3.235,0" transform="translate(5.78)" fill="#3e3c55"/>
        </g>
        <g id="Group_239" data-name="Group 239" transform="translate(62.314 221.241)">
          <path id="Path_391" data-name="Path 391" d="M-3.235,0C-1.83,0-.691,1.492-.691,3.333S-1.83,6.666-3.235,6.666-5.78,5.173-5.78,3.333-4.641,0-3.235,0" transform="translate(5.78)" fill="#3e3c55"/>
        </g>
        <g id="Group_240" data-name="Group 240" transform="translate(62.314 217.169)">
          <path id="Path_392" data-name="Path 392" d="M-3.235,0C-1.83,0-.691,1.492-.691,3.333S-1.83,6.666-3.235,6.666-5.78,5.173-5.78,3.333-4.641,0-3.235,0" transform="translate(5.78)" fill="#3e3c55"/>
        </g>
        <g id="Group_241" data-name="Group 241" transform="translate(52.614 172.824)">
          <path id="Path_393" data-name="Path 393" d="M-27.7-25.162a12.952,12.952,0,0,0,.947-1.4l-6.692-1.1,7.238.053a12.2,12.2,0,0,0,.233-9.686l-9.708,5.037,8.955-6.6A12.2,12.2,0,0,0-43.4-43.313a12.2,12.2,0,0,0-4.455,16.668,12.208,12.208,0,0,0,.972,1.434,11.939,11.939,0,0,0-1.391,2.223l8.682,4.561-9.245-3.126a12.214,12.214,0,0,0,1.968,11.447A12.2,12.2,0,0,0-44.821,7.026,12.2,12.2,0,0,0-27.69,4.979a12.2,12.2,0,0,0,0-15.084,12.2,12.2,0,0,0,0-15.083Z" transform="translate(49.493 44.953)" fill="#38d29f"/>
        </g>
        <g id="Group_245" data-name="Group 245" transform="translate(52.606 199.978)" opacity="0.1">
          <g id="Group_244" data-name="Group 244">
            <g id="Group_243" data-name="Group 243" clip-path="url(#clip-path-14)">
              <g id="Group_242" data-name="Group 242" transform="translate(0 0)">
                <path id="Path_394" data-name="Path 394" d="M0-.229A12.146,12.146,0,0,0,2.61,7.313a12.2,12.2,0,1,0,19.178,0C23.421,5.24,0-1.6,0-.229" transform="translate(0.001 0.408)"/>
              </g>
            </g>
          </g>
        </g>
        <g id="Group_246" data-name="Group 246" transform="translate(41.825 239.745)">
          <path id="Path_395" data-name="Path 395" d="M-57.01-31.9h-43.013a1.827,1.827,0,0,1-1.827-1.827V-55.163a1.827,1.827,0,0,1,1.827-1.828,1.83,1.83,0,0,1,.784.177c12.358,5.864,22.158,12.7,41.384.092a1.791,1.791,0,0,1,2.642,1.633v21.353a1.827,1.827,0,0,1-1.8,1.836" transform="translate(101.85 56.991)" fill="#38d29f"/>
        </g>
        <g id="Group_247" data-name="Group 247" transform="translate(308.186 236.562)">
          <path id="Path_396" data-name="Path 396" d="M-124.162-28.239l-63.459,8.4-3.174.418L-221.82-36v-3.879l96.954-10.575Z" transform="translate(221.82 50.45)" fill="#9c9ca0"/>
        </g>
        <g id="Group_248" data-name="Group 248" transform="translate(326.166 244.672)">
          <path id="Path_397" data-name="Path 397" d="M0-10.3,68.746-18.41l-.7,12.693L14.493-1.79Z" transform="translate(0 18.41)" fill="#929397"/>
        </g>
        <g id="Group_252" data-name="Group 252" transform="translate(308.181 247.137)" opacity="0.4">
          <g id="Group_251" data-name="Group 251" transform="translate(0 0)">
            <g id="Group_250" data-name="Group 250" clip-path="url(#clip-path-15)">
              <g id="Group_249" data-name="Group 249" transform="translate(0 0)">
                <path id="Path_398" data-name="Path 398" d="M-43.486-20.167V-16l-3.174.44L-77.69-32.151V-36.03l29.616,15.849s3.883.365,4.588.013" transform="translate(77.69 36.03)"/>
              </g>
            </g>
          </g>
        </g>
        <g id="Group_253" data-name="Group 253" transform="translate(340.223 189.054)">
          <path id="Path_399" data-name="Path 399" d="M-18.237-9.969-32.483,56.092a4.218,4.218,0,0,0,3.227,5.017,4.218,4.218,0,0,0,1.449.059L62.327,49.237a4.217,4.217,0,0,0,3.452-2.853L85.224-12.258A4.226,4.226,0,0,0,82.536-17.6a4.223,4.223,0,0,0-1.521-.209L-14.309-13.28a4.226,4.226,0,0,0-3.927,3.311" transform="translate(32.58 17.81)" fill="#3e3c55"/>
        </g>
        <g id="Group_254" data-name="Group 254" transform="translate(399.166 217.191)">
          <path id="Path_400" data-name="Path 400" d="M-.042-4.527c.221-2.1,1.5-3.694,2.848-3.552S5.074-6.117,4.853-4.013,3.357-.319,2.005-.461-.263-2.423-.042-4.527" transform="translate(0.075 8.088)" fill="#fff"/>
        </g>
      </g>
    </g>
  </g>
</svg>
