<svg xmlns="http://www.w3.org/2000/svg" xmlns:xlink="http://www.w3.org/1999/xlink" width="429.523" height="319.231" viewBox="0 0 429.523 319.231">
  <defs>
    <linearGradient id="linear-gradient" x1="0.8" y1="-0.357" x2="0.8" y2="0.644" gradientUnits="objectBoundingBox">
      <stop offset="0" stop-color="gray" stop-opacity="0.251"/>
      <stop offset="0.54" stop-color="gray" stop-opacity="0.122"/>
      <stop offset="1" stop-color="gray" stop-opacity="0.102"/>
    </linearGradient>
  </defs>
  <g id="Group_8" data-name="Group 8" transform="translate(-0.026)">
    <path id="Path_201" data-name="Path 201" d="M249.6,57.633c-27.571-.723-53.78-7.318-78.84-14.551S120.934,27.85,94.044,24.021c-17.274-2.468-37.059-2.808-50.971,4.085C29.67,34.7,25.331,46.145,22.99,56.782c-1.744,8-2.766,16.381,2,23.869,3.319,5.191,9.233,9.573,13.36,14.509,14.253,17.317,4.17,38.633-11.232,55.524C19.885,158.6,11.46,166.171,5.886,174.6s-8.169,18.083-3.276,26.72c4.85,8.509,16.381,14.934,28.89,19.444,25.4,9.148,55.311,11.786,84.5,13.275,64.587,3.276,129.556,1.872,194.313.425,23.954-.511,48.036-1.064,71.607-3.829,13.1-1.532,26.635-3.957,36.122-9.828,12.083-7.446,15.062-20.04,6.978-29.358-13.573-15.657-51.057-19.529-60.545-36.335-5.233-9.233.128-19.529,7.744-28.124,16.253-18.38,43.526-34.548,44.93-55.567.979-14.423-12.126-28.89-32.378-35.74-21.231-7.148-50.716-6.254-66.374,5.574C302.27,53.506,273.891,58.229,249.6,57.633Z" transform="translate(0 -12.873)" fill="#38d39f" opacity="0.1"/>
    <g id="Group_7" data-name="Group 7" transform="translate(308.482)" opacity="0.8">
      <path id="Path_202" data-name="Path 202" d="M815.966,76.032s-4.808-1.957-20.082,5.063-17.146,6.127-21.1,5.063-6.169-1.319-10.381-7.19c0,0-2.978-16.21-5.872-18.721S743.3,61.693,743.3,61.693s-14.721,3.4-17.572-16.3c0,0,2-14.849-.723-19.4,0,0,5.488,2.383,14.508-1.447s16.253,4.127,16.253,4.127,2.3,5.914,2.042,9.4,1.191,4.85,5.531,3.148c0,0,2.127-3.021-.893-8s-5.148-8.68-4.3-12.551,3.234-9.233,10.977-11.913,18.252-3.191,23.273-5.276S798.734,0,798.734,0s-3.106,3.106,4.212,16.3,2.638,18.891,2.638,18.891-3.872,9.275-21.061,8.509c0,0-16.551.6-7.531,7.616,0,0,5.786-1.191,14.424-3.914s14.849,8.595,16.423,16.466C809.371,71.735,815.966,76.032,815.966,76.032Z" transform="translate(-725)" fill="#38d39f"/>
      <path id="Path_203" data-name="Path 203" d="M868.862,23.343l.085-.043c.681,2.51-6.722,12.637-13.062,20.635l-.085-.043C864.777,32.618,869.415,25.3,868.862,23.343Z" transform="translate(-800.149 -13.387)" fill="#444053"/>
      <path id="Path_204" data-name="Path 204" d="M831.955,71.4l.043.085c-5.063,6.425-11.4,14.083-16.466,19.742-.468.553-.979,1.106-1.4,1.7L814,92.8c.468-.6.936-1.149,1.447-1.7C820.467,85.441,826.934,77.825,831.955,71.4Z" transform="translate(-776.133 -41.021)" fill="#444053"/>
      <path id="Path_205" data-name="Path 205" d="M798.343,121.4l.085.17c-9.233,11.53-9.871,29.443-9.871,29.613l-1.957-2.212C786.643,148.758,789.025,133.015,798.343,121.4Z" transform="translate(-760.391 -69.748)" fill="#444053"/>
      <path id="Path_206" data-name="Path 206" d="M816.5,112.982s-10.892-5.659-19.4-3.617-27.613-7.19-27.613-7.19-8.126-3.319-9.743-7.063c0,0-5.574-5.914-5.872-8.935S748.131,75.455,744.6,75.2" transform="translate(-736.261 -43.205)" fill="none" stroke="#444053" stroke-miterlimit="10" stroke-width="1"/>
      <path id="Path_207" data-name="Path 207" d="M903.281,166s-5.489-3.7-4.85-8" transform="translate(-824.611 -90.776)" fill="none" stroke="#444053" stroke-miterlimit="10" stroke-width="1"/>
      <path id="Path_208" data-name="Path 208" d="M878.437,169.141s-7.871-2.851-8.637-14.041" transform="translate(-808.192 -89.109)" fill="none" stroke="#444053" stroke-miterlimit="10" stroke-width="1"/>
      <path id="Path_209" data-name="Path 209" d="M852.847,171.8a17.606,17.606,0,0,1-5.02-17.1" transform="translate(-795.281 -88.88)" fill="none" stroke="#444053" stroke-miterlimit="10" stroke-width="1"/>
      <path id="Path_210" data-name="Path 210" d="M821.278,164.374s-4.978-10.467-.553-17.274" transform="translate(-778.944 -84.513)" fill="none" stroke="#444053" stroke-miterlimit="10" stroke-width="1"/>
      <path id="Path_211" data-name="Path 211" d="M907.645,147.8s-5.659,1.787-4.468,4.808" transform="translate(-827.273 -84.915)" fill="none" stroke="#444053" stroke-miterlimit="10" stroke-width="1"/>
      <path id="Path_212" data-name="Path 212" d="M887.286,123.6s-7.616,2.425-7.786,13.147" transform="translate(-813.765 -71.012)" fill="none" stroke="#444053" stroke-miterlimit="10" stroke-width="1"/>
      <path id="Path_213" data-name="Path 213" d="M864.188,117.7s-6.935,8.552-6.425,16.3" transform="translate(-801.261 -67.622)" fill="none" stroke="#444053" stroke-miterlimit="10" stroke-width="1"/>
      <path id="Path_214" data-name="Path 214" d="M836.191,125.6s-6.893,6.552-6,10.211" transform="translate(-785.39 -72.161)" fill="none" stroke="#444053" stroke-miterlimit="10" stroke-width="1"/>
      <path id="Path_215" data-name="Path 215" d="M824.761,118.879s-6.425,1.149-7.361-.979" transform="translate(-778.086 -67.737)" fill="none" stroke="#444053" stroke-miterlimit="10" stroke-width="1"/>
      <path id="Path_216" data-name="Path 216" d="M815,101.9s3.276,4.3,4.084,3.361" transform="translate(-776.708 -58.544)" fill="none" stroke="#444053" stroke-miterlimit="10" stroke-width="1"/>
      <path id="Path_217" data-name="Path 217" d="M863.912,90.5S847.659,91.693,844,86.8" transform="translate(-793.369 -49.869)" fill="none" stroke="#444053" stroke-miterlimit="10" stroke-width="1"/>
      <path id="Path_218" data-name="Path 218" d="M807,50.8s7.616,16.338,13.147,18.423" transform="translate(-772.111 -29.186)" fill="none" stroke="#444053" stroke-miterlimit="10" stroke-width="1"/>
      <path id="Path_219" data-name="Path 219" d="M825.8,32.5s4.68,15.019,10.467,19.742" transform="translate(-782.913 -18.672)" fill="none" stroke="#444053" stroke-miterlimit="10" stroke-width="1"/>
      <path id="Path_220" data-name="Path 220" d="M880.242,66.243S867.9,71.518,860.5,66.2" transform="translate(-802.849 -38.034)" fill="none" stroke="#444053" stroke-miterlimit="10" stroke-width="0.75"/>
      <path id="Path_221" data-name="Path 221" d="M851.6,25s2.808,11.062,6.637,13.743" transform="translate(-797.735 -14.363)" fill="none" stroke="#444053" stroke-miterlimit="10" stroke-width="0.75"/>
      <path id="Path_222" data-name="Path 222" d="M889.63,37.2s-6.935,2.638-9.531.6" transform="translate(-814.109 -21.372)" fill="none" stroke="#444053" stroke-miterlimit="10" stroke-width="0.75"/>
      <path id="Path_223" data-name="Path 223" d="M797.438,110.4s0,9.658-2.638,10.339" transform="translate(-765.102 -63.428)" fill="none" stroke="#444053" stroke-miterlimit="10" stroke-width="1"/>
      <path id="Path_224" data-name="Path 224" d="M750.6,133.667s10.424.893,15.232-4.467" transform="translate(-739.708 -74.229)" fill="none" stroke="#444053" stroke-miterlimit="10" stroke-width="1"/>
      <path id="Path_225" data-name="Path 225" d="M781.888,83.6s-2.51,9.786-9.488,12.424" transform="translate(-752.233 -48.031)" fill="none" stroke="#444053" stroke-miterlimit="10" stroke-width="1"/>
      <path id="Path_226" data-name="Path 226" d="M735.9,110.157a13.724,13.724,0,0,0,13.743-3.957" transform="translate(-731.262 -61.015)" fill="none" stroke="#444053" stroke-miterlimit="10" stroke-width="1"/>
      <path id="Path_227" data-name="Path 227" d="M768.333,63.8s-.681,8.3-5.233,12.168" transform="translate(-746.89 -36.655)" fill="none" stroke="#444053" stroke-miterlimit="10" stroke-width="1"/>
      <path id="Path_228" data-name="Path 228" d="M736.6,83.157s6.127.043,7.574-1.957" transform="translate(-731.664 -46.652)" fill="none" stroke="#444053" stroke-miterlimit="10" stroke-width="1"/>
    </g>
    <ellipse id="Ellipse_55" data-name="Ellipse 55" cx="92.753" cy="6.595" rx="92.753" ry="6.595" transform="translate(19.119 306.042)" fill="#38d39f" opacity="0.1"/>
    <path id="Path_229" data-name="Path 229" d="M226.953,359.734c1.276-2.3,2.808-4.467,4.042-6.765,1.106-2.127,2-4.382,3.021-6.552,1.744-3.744,3.872-7.276,5.829-10.935,1.276-2.383,2.51-4.978,2.255-7.7-.213-2.553-1.744-4.765-2.3-7.233-2.34-10.126-8.041-19.444-11.488-29.23-.894-2.468-1.744-4.978-2.851-7.4a79.783,79.783,0,0,0-8.084-12.892,32.517,32.517,0,0,0-3.574-4.425c-1.064-1.064-2.255-2-3.234-3.148-2-2.383-2.936-5.829-5.446-7.658-.043.128-.085.213-.128.34-1.787-4.553-7.786-7.573-11.275-11.36a58.67,58.67,0,0,1-5.574-7.361l-7.573-10.977a17.665,17.665,0,0,1-3.149-6.084c-.638-2.723-.043-5.616-.681-8.339a10.609,10.609,0,0,0-2.34-4.425.325.325,0,0,0,.213-.085c1.447-.383,2.978-.468,4.425-.808,3.148-.766,5.829-2.766,8.977-3.531,1.574-.425,3.276-.511,4.723-1.276a3.919,3.919,0,0,0,1.83-4.17c-1.021-5.318,1.829-10.764,1.319-16.168-.128-1.489-.511-2.978-.766-4.425a45.306,45.306,0,0,1-.255-10.467,22.469,22.469,0,0,1,3.446-4.3c1.915-1.83,4.212-3.4,5.531-5.7a11.172,11.172,0,0,0,1.149-6.85,6.66,6.66,0,0,0-2.127-4.51,5.357,5.357,0,0,0-4.893-.553c-.213.085-.425.17-.681.255a5.613,5.613,0,0,0-4.382-.255,13.406,13.406,0,0,0-4.3,2.723,9.5,9.5,0,0,0-2,2.127,12.621,12.621,0,0,0-1.362,4.34,42.865,42.865,0,0,1-2.893,8.424c-.213.468-.851,1.319-1.362,2.127l-.936-.255c-.383,3.787-3.574,6.595-5.489,9.828-.936,1.574-1.617,3.319-2.468,4.978a50.291,50.291,0,0,1-3.234,5.191c-1.149,1.7-2.3,3.4-3.446,5.063a76.079,76.079,0,0,1-4.68,6.34c-1.574-.128-3.106-.255-4.68-.255a39.841,39.841,0,0,0-7.786.681,14.748,14.748,0,0,1-.255-2.723v-.17c0-.213.043-.468.043-.766a15.758,15.758,0,0,0,4.34-21.827,16.06,16.06,0,0,0-5.063-4.808c.085-.468.128-.979.17-1.447v-.851a1.447,1.447,0,0,0-.043-.425c-.043-.3-.085-.553-.128-.851-.043-.128-.085-.255-.128-.425a6.026,6.026,0,0,0-.34-.766.042.042,0,0,0-.043-.043c-.043-.085-.128-.17-.17-.255s-.043-.085-.085-.085c-.043-.043-.085-.128-.128-.17l-.128-.128a.587.587,0,0,1-.128-.17l-.128-.128-.17-.128-.128-.085-.17-.128-.17-.085-.17-.085c-.043-.043-.128-.043-.17-.085l-.17-.085-.17-.085-.17-.085-.17-.085-.17-.085-.213-.085-.128-.043-.213-.085-.128-.043-.255-.085-.128-.043-.255-.085-.085-.043-.255-.085H142.5l-.3-.085h-.043l-.468-.085c-1.872-.383-3.744-.723-5.616-.979a13.088,13.088,0,0,0-4.638-.085c-2.085.468-3.872,1.872-5.829,2.766-2.34,1.064-4.893,1.319-7.361,1.915s-5.021,1.574-6.595,3.574a12.228,12.228,0,0,0-2,5.446c-2.936,16,.213,32.463.808,48.716.255,6.339-.043,13.1-3.659,18.3l10.467-.255c.511,0,1.021-.043,1.532-.043s1.021-.085,1.532-.128a10.027,10.027,0,0,0,3.787-1.149,6.348,6.348,0,0,0,1.489-1.149,15.423,15.423,0,0,0,2.893-5.489c.255-.638.468-1.319.681-2,.085-.3.17-.553.255-.851l.043-.128.128.043a26.189,26.189,0,0,0,1.4,2.34,52.078,52.078,0,0,0,6.425,7.276c4.553,4.51,9.233,9.148,14.934,12.041,1.915.979,4.042,1.787,5.489,3.4.723.766,1.362,1.787,2.383,2.042a15.408,15.408,0,0,1,1.957.255c.893.383,1.234,1.447,1.617,2.34s1.361,1.787,2.212,1.4a4.436,4.436,0,0,0,1.659,4.425,2.941,2.941,0,0,1,1.064.979,3.649,3.649,0,0,1,.213,1.149,4.413,4.413,0,0,0,1.617,2.766c-.851,1.362-.17,3.361-.128,5.063a17.979,17.979,0,0,1-.808,4.212c-.936,4.127-.425,8.424.34,12.551a13.645,13.645,0,0,0,2.468,6.425c.468.553,1.064,1.064,1.574,1.617a14.627,14.627,0,0,1,2.383,3.659,28.789,28.789,0,0,1,2.6,8.339,15.993,15.993,0,0,0,1.234,4.212c.936,2.042.085,4.553.893,6.595a25.991,25.991,0,0,1,1.319,2.68c.34,1.4-.425,2.851-.638,4.255-.468,3.361,1.957,6.51,2.17,9.913a.613.613,0,0,1-.128.553c-.17.17-.468.17-.681.3-.425.213-.553.766-.681,1.276s-.511,1.021-.979.851c-6.978,3.744-14.211,7.19-21.231,10.935l-3.191,1.7-17.061,9.105a1.227,1.227,0,0,0-.681,1.106c0,.213.043.425.043.638-1.191.3-2.34.638-3.148.808-.34.085-.681.128-1.021.213a1.275,1.275,0,0,0,.17-.426.871.871,0,0,0-.766-.851,2.429,2.429,0,0,0-1.234.17,17.5,17.5,0,0,1-2.978.553,24.831,24.831,0,0,0-3.574.425,4.041,4.041,0,0,0-2.766,2.127,4.585,4.585,0,0,0-.3,2,30.007,30.007,0,0,0,.936,7.786.649.649,0,0,0,.3.511c.17.043.34,0,.468.085a.662.662,0,0,1,.255.34,16.6,16.6,0,0,1,1.064,5.191c.3,2.638.638,5.233,1.064,7.871a8.506,8.506,0,0,0,1.574,4.3,7.205,7.205,0,0,0,4.467,2.085c3.531.468,7.063-.255,10.509-.979a3.138,3.138,0,0,0,1.787-.808,2.045,2.045,0,0,0,.425-1.4c-.085-1.744-1.659-2.978-3.106-3.957l-1.957-1.362a.888.888,0,0,1-.425-.979l.128-2.6h-.383a9.017,9.017,0,0,1,2.468-4.808c.936-.851,2.127-1.447,3.106-2.212a7.793,7.793,0,0,0,4.3,1.574c2.553-3.446,6.169-5.786,9.743-8.084,2.936-1.83,5.957-3.531,9.063-5.063,2.51-1.234,5.063-2.425,7.658-3.489,3.659-1.532,7.4-2.893,11.1-4.255A42.529,42.529,0,0,0,195.6,354.8c5.957-3.446,10.169-10.3,9.36-17.189-1.021-8.68,1.149-17.742,1.021-26.464a26.755,26.755,0,0,0-.893-7.573,4.5,4.5,0,0,1,.511.425c1.532,1.447,1.915,3.744,3.4,5.4,1.149,1.276,2.893,2.127,3.617,3.7.553,1.191.468,2.851,1.574,3.531a7.458,7.458,0,0,0,1.021.468,3.1,3.1,0,0,1,.936,1.021c1.191,1.7,2.383,3.489,2.51,5.531.043.808,0,1.744.6,2.3.17.17.383.255.468.468.17.425-.3.893-.383,1.361-.128.638.511,1.149.936,1.7a2.682,2.682,0,0,1,0,3.148c-3.489,4.553-4.127,10.637-7.19,15.487-1.064,1.659-2.212,3.276-3.234,4.935-3.148,5.191-4.723,11.19-6.254,17.061a9.507,9.507,0,0,0,2.6,2.936,14.553,14.553,0,0,1-2.936,5.4,13.228,13.228,0,0,0-.979,1.191,3.079,3.079,0,0,0-.936-.723,33.582,33.582,0,0,0-.851,7.446c0,1.659.213,3.531,1.574,4.467a5.232,5.232,0,0,0,1.744.723l2.936.851a2.987,2.987,0,0,0,1.617.17c.34-.085.638-.3,1.021-.383a2.664,2.664,0,0,1,1.149.128l2.51.723a13.587,13.587,0,0,1,2.51.894c.723.34,1.4.808,2.085,1.191a22.739,22.739,0,0,0,3.659,1.489l4.34,1.489a15.978,15.978,0,0,0,3.787.979c.893.085,1.787,0,2.68.17.681.128,1.319.34,2,.425a5.262,5.262,0,0,0,3.148-.936,2.718,2.718,0,0,0,.893-.808c.638-.979.085-2.3-.553-3.319a12.867,12.867,0,0,0-4.51-4.68c-.766-.426-1.617-.723-2.383-1.149-2.255-1.106-3.957-2.936-6.127-4.212a1.476,1.476,0,0,0-1.83.128c-1.787-1.149-3.7-2.3-4.68-4.17a9.482,9.482,0,0,1-.851-2.893c1.021.255,2,.426,3.021.6C221.89,372.03,223.72,365.52,226.953,359.734ZM186.065,178.27c-.085.468-.17.979-.3,1.447-.851,4-2.085,8.467-4.85,11.445a11.92,11.92,0,0,1-3.149,2.085l-.3.17A66.1,66.1,0,0,1,186.065,178.27Z" transform="translate(-61.345 -82.965)" fill="url(#linear-gradient)"/>
    <path id="Path_230" data-name="Path 230" d="M296.077,155.491a12.916,12.916,0,0,1,1.362-4.34,9.506,9.506,0,0,1,2-2.127,13.018,13.018,0,0,1,4.3-2.68,5.372,5.372,0,0,1,4.893.553,6.482,6.482,0,0,1,2.127,4.51,11.041,11.041,0,0,1-1.149,6.808c-1.319,2.3-3.617,3.829-5.531,5.659a21.865,21.865,0,0,0-3.617,4.51,13.252,13.252,0,0,1-1.659,2.383,3.154,3.154,0,0,1-2.6,1.064,4.529,4.529,0,0,1-2.127-1.234c-.808-.681-2.893-1.915-2.978-3.021-.043-.893,1.617-2.893,2-3.744A39.826,39.826,0,0,0,296.077,155.491Z" transform="translate(-167.229 -83.884)" fill="#fbbebe"/>
    <path id="Path_231" data-name="Path 231" d="M296.077,155.491a12.916,12.916,0,0,1,1.362-4.34,9.506,9.506,0,0,1,2-2.127,13.018,13.018,0,0,1,4.3-2.68,5.372,5.372,0,0,1,4.893.553,6.482,6.482,0,0,1,2.127,4.51,11.041,11.041,0,0,1-1.149,6.808c-1.319,2.3-3.617,3.829-5.531,5.659a21.865,21.865,0,0,0-3.617,4.51,13.252,13.252,0,0,1-1.659,2.383,3.154,3.154,0,0,1-2.6,1.064,4.529,4.529,0,0,1-2.127-1.234c-.808-.681-2.893-1.915-2.978-3.021-.043-.893,1.617-2.893,2-3.744A39.826,39.826,0,0,0,296.077,155.491Z" transform="translate(-167.229 -83.884)" opacity="0.1"/>
    <path id="Path_232" data-name="Path 232" d="M197.8,226.777a39.412,39.412,0,0,1,10.467-1.276c5.872.085,11.956,1.489,17.529-.3a30.739,30.739,0,0,0,4.212-1.83,11.139,11.139,0,0,0,3.148-2.042c2.766-2.936,4-7.4,4.85-11.36a76.638,76.638,0,0,0,1.319-12.083,8.831,8.831,0,0,0,4.6,1.191c1.617-.17,3.191-1.362,3.191-2.978a47.577,47.577,0,0,0,.213,11.275c.255,1.489.638,2.936.766,4.425.468,5.361-2.34,10.764-1.319,16.04a3.919,3.919,0,0,1-1.83,4.17,19.875,19.875,0,0,1-4.723,1.276c-3.106.808-5.829,2.766-8.977,3.531-1.447.34-2.978.425-4.425.808-2.085.553-3.957,1.744-6.042,2.085a44.939,44.939,0,0,1-4.808.213c-1.4.128-2.766.468-4.127.511-3.4.085-6.637-1.83-8.892-4.382S199.2,229.882,197.8,226.777Z" transform="translate(-113.627 -112.665)" fill="#38d39f"/>
    <path id="Path_233" data-name="Path 233" d="M197.8,226.777a39.412,39.412,0,0,1,10.467-1.276c5.872.085,11.956,1.489,17.529-.3a30.739,30.739,0,0,0,4.212-1.83,11.139,11.139,0,0,0,3.148-2.042c2.766-2.936,4-7.4,4.85-11.36a76.638,76.638,0,0,0,1.319-12.083,8.831,8.831,0,0,0,4.6,1.191c1.617-.17,3.191-1.362,3.191-2.978a47.577,47.577,0,0,0,.213,11.275c.255,1.489.638,2.936.766,4.425.468,5.361-2.34,10.764-1.319,16.04a3.919,3.919,0,0,1-1.83,4.17,19.875,19.875,0,0,1-4.723,1.276c-3.106.808-5.829,2.766-8.977,3.531-1.447.34-2.978.425-4.425.808-2.085.553-3.957,1.744-6.042,2.085a44.939,44.939,0,0,1-4.808.213c-1.4.128-2.766.468-4.127.511-3.4.085-6.637-1.83-8.892-4.382S199.2,229.882,197.8,226.777Z" transform="translate(-113.627 -112.665)" opacity="0.1"/>
    <path id="Path_234" data-name="Path 234" d="M508.105,270.733a29.272,29.272,0,1,1-29.272,29.272h0a29.271,29.271,0,0,1,29.272-29.272m0-7.233a36.505,36.505,0,1,0,36.506,36.505h0A36.5,36.5,0,0,0,508.105,263.5Z" transform="translate(-270.933 -151.388)" fill="#3f3d56"/>
    <rect id="Rectangle_48" data-name="Rectangle 48" width="8.552" height="9.02" transform="translate(231.769 103.56)" fill="#3f3d56"/>
    <rect id="Rectangle_49" data-name="Rectangle 49" width="9.02" height="8.552" transform="translate(250.95 114.926) rotate(-59.003)" fill="#3f3d56"/>
    <rect id="Rectangle_50" data-name="Rectangle 50" width="9.02" height="8.552" transform="translate(265.956 126.359) rotate(-29)" fill="#3f3d56"/>
    <rect id="Rectangle_51" data-name="Rectangle 51" width="8.552" height="9.02" transform="translate(266.083 170.274) rotate(-57.999)" fill="#3f3d56"/>
    <rect id="Rectangle_52" data-name="Rectangle 52" width="8.552" height="9.02" transform="translate(196.358 129.453) rotate(-61)" fill="#3f3d56"/>
    <rect id="Rectangle_53" data-name="Rectangle 53" width="9.02" height="8.552" transform="translate(196.097 167.771) rotate(-32.001)" fill="#3f3d56"/>
    <rect id="Rectangle_54" data-name="Rectangle 54" width="8.552" height="9.02" transform="translate(211.43 111.646) rotate(-30.997)" fill="#3f3d56"/>
    <rect id="Rectangle_55" data-name="Rectangle 55" width="8.552" height="9.02" transform="translate(231.769 184.697)" fill="#3f3d56"/>
    <rect id="Rectangle_56" data-name="Rectangle 56" width="8.552" height="9.02" transform="translate(250.952 182.33) rotate(-30.997)" fill="#3f3d56"/>
    <rect id="Rectangle_57" data-name="Rectangle 57" width="9.02" height="8.552" transform="translate(211.389 185.625) rotate(-59.003)" fill="#3f3d56"/>
    <rect id="Rectangle_58" data-name="Rectangle 58" width="10.382" height="7.658" transform="translate(191.222 145.043)" fill="#3f3d56"/>
    <rect id="Rectangle_59" data-name="Rectangle 59" width="10.382" height="7.658" transform="translate(272.785 145.043)" fill="#3f3d56"/>
    <path id="Path_235" data-name="Path 235" d="M668.005,146.833a29.272,29.272,0,1,1-29.272,29.272h0a29.271,29.271,0,0,1,29.272-29.272m0-7.233a36.505,36.505,0,1,0,36.506,36.505h0A36.5,36.5,0,0,0,668.005,139.6Z" transform="translate(-362.8 -80.204)" fill="#3f3d56"/>
    <rect id="Rectangle_60" data-name="Rectangle 60" width="8.552" height="9.02" transform="translate(299.802 50.844)" fill="#3f3d56"/>
    <rect id="Rectangle_61" data-name="Rectangle 61" width="9.02" height="8.552" transform="translate(318.99 62.216) rotate(-59.003)" fill="#3f3d56"/>
    <rect id="Rectangle_62" data-name="Rectangle 62" width="9.02" height="8.552" transform="translate(333.992 73.649) rotate(-29)" fill="#3f3d56"/>
    <rect id="Rectangle_63" data-name="Rectangle 63" width="8.552" height="9.02" transform="translate(334.088 117.544) rotate(-57.999)" fill="#3f3d56"/>
    <rect id="Rectangle_64" data-name="Rectangle 64" width="8.552" height="9.02" transform="translate(264.394 76.744) rotate(-61)" fill="#3f3d56"/>
    <rect id="Rectangle_65" data-name="Rectangle 65" width="9.02" height="8.552" transform="translate(264.129 115.062) rotate(-32.001)" fill="#3f3d56"/>
    <rect id="Rectangle_66" data-name="Rectangle 66" width="8.552" height="9.02" transform="translate(279.472 58.934) rotate(-30.997)" fill="#3f3d56"/>
    <rect id="Rectangle_67" data-name="Rectangle 67" width="8.552" height="9.02" transform="translate(299.802 131.981)" fill="#3f3d56"/>
    <rect id="Rectangle_68" data-name="Rectangle 68" width="8.552" height="9.02" transform="translate(318.992 129.619) rotate(-30.997)" fill="#3f3d56"/>
    <rect id="Rectangle_69" data-name="Rectangle 69" width="9.02" height="8.552" transform="translate(279.447 132.875) rotate(-59.003)" fill="#3f3d56"/>
    <rect id="Rectangle_70" data-name="Rectangle 70" width="10.382" height="7.658" transform="translate(259.255 92.327)" fill="#3f3d56"/>
    <rect id="Rectangle_71" data-name="Rectangle 71" width="10.382" height="7.658" transform="translate(340.818 92.327)" fill="#3f3d56"/>
    <path id="Path_236" data-name="Path 236" d="M348.048,141.533h1.021a29.28,29.28,0,0,1-.978,58.545h-1.021a29.28,29.28,0,0,1,.979-58.545m0-7.233h0a36.516,36.516,0,0,0-1.276,73.011h1.276a36.516,36.516,0,0,0,1.234-73.011Z" transform="translate(-178.951 -77.159)" fill="#3f3d56"/>
    <rect id="Rectangle_72" data-name="Rectangle 72" width="9.02" height="8.552" transform="translate(164.962 57.468) rotate(-88.01)" fill="#3f3d56"/>
    <rect id="Rectangle_73" data-name="Rectangle 73" width="9.02" height="8.552" transform="translate(184.08 60.475) rotate(-57.011)" fill="#3f3d56"/>
    <rect id="Rectangle_74" data-name="Rectangle 74" width="9.02" height="8.552" transform="translate(198.646 72.384) rotate(-27.008)" fill="#3f3d56"/>
    <rect id="Rectangle_75" data-name="Rectangle 75" width="8.552" height="9.02" transform="matrix(0.559, -0.829, 0.829, 0.559, 197.281, 116.263)" fill="#3f3d56"/>
    <rect id="Rectangle_76" data-name="Rectangle 76" width="8.552" height="9.02" transform="matrix(0.515, -0.857, 0.857, 0.515, 129.015, 73.071)" fill="#3f3d56"/>
    <rect id="Rectangle_77" data-name="Rectangle 77" width="9.063" height="8.595" transform="translate(126.765 112.048) rotate(-29.888)" fill="#3f3d56"/>
    <rect id="Rectangle_78" data-name="Rectangle 78" width="8.552" height="9.02" transform="translate(144.684 55.769) rotate(-29.013)" fill="#3f3d56"/>
    <rect id="Rectangle_79" data-name="Rectangle 79" width="9.02" height="8.552" transform="translate(162.147 138.518) rotate(-88.01)" fill="#3f3d56"/>
    <rect id="Rectangle_80" data-name="Rectangle 80" width="8.552" height="9.02" transform="translate(181.747 127.8) rotate(-29.013)" fill="#3f3d56"/>
    <rect id="Rectangle_81" data-name="Rectangle 81" width="9.02" height="8.552" transform="translate(142.133 129.739) rotate(-57.011)" fill="#3f3d56"/>
    <rect id="Rectangle_82" data-name="Rectangle 82" width="7.658" height="10.382" transform="translate(123.078 96.109) rotate(-88.01)" fill="#3f3d56"/>
    <rect id="Rectangle_83" data-name="Rectangle 83" width="7.658" height="10.382" transform="translate(204.582 98.923) rotate(-88.01)" fill="#3f3d56"/>
    <path id="Path_237" data-name="Path 237" d="M165.792,657.326a9.252,9.252,0,0,0-3.021.936,7.1,7.1,0,0,0-2.638,3.531,30.451,30.451,0,0,0-1.744,11.062,23.406,23.406,0,0,0,1.149,8.935,5.658,5.658,0,0,0,1.489,2.34,5.343,5.343,0,0,0,2.042.979,5.588,5.588,0,0,0,4.808-.6c1.489-1.149,1.83-3.191,2.17-5.02.425-2.468,1.021-5.106,2.851-6.85,1.362-1.276,3.319-1.915,4.34-3.489,1.191-1.872.553-4.34-.213-6.425-.638-1.83-1.617-5.489-3.531-6.425S167.749,656.943,165.792,657.326Z" transform="translate(-90.979 -376.898)" fill="#fbbebe"/>
    <path id="Path_238" data-name="Path 238" d="M334.07,675.209a13.567,13.567,0,0,1-2.978,5.489c-.851.979-1.915,2.127-1.447,3.361a2.835,2.835,0,0,0,.808,1.064c6.254,6.084,14.977,9.063,23.614,10.169a.724.724,0,0,0,.426,0c.255-.127.3-.425.34-.723a9.729,9.729,0,0,0,0-2.723c-.425-2.127-2.3-3.617-4.085-4.765s-3.787-2.3-4.808-4.212c-1.276-2.383-.723-5.446-2.212-7.658-1.234-1.787-3.489-2.553-5.616-2.893-.766-.128-2.34-.936-2.978-.553C334.453,672.145,334.326,674.485,334.07,675.209Z" transform="translate(-189.31 -385.888)" fill="#fbbebe"/>
    <path id="Path_239" data-name="Path 239" d="M158.1,657.33a.871.871,0,0,0-.766-.851,2.428,2.428,0,0,0-1.234.17,17.51,17.51,0,0,1-2.978.553,24.84,24.84,0,0,0-3.574.425,4.041,4.041,0,0,0-2.766,2.127,5.312,5.312,0,0,0-.3,2,29.689,29.689,0,0,0,.936,7.744.789.789,0,0,0,.3.511c.17.043.34,0,.468.085a.662.662,0,0,1,.255.34,16.355,16.355,0,0,1,1.064,5.191c.3,2.6.638,5.191,1.064,7.786a8.358,8.358,0,0,0,1.574,4.255,6.941,6.941,0,0,0,4.467,2.042c3.531.468,7.063-.255,10.552-.979a3.138,3.138,0,0,0,1.787-.808,2.046,2.046,0,0,0,.425-1.4c-.085-1.744-1.659-2.978-3.106-3.914l-2-1.362a1.145,1.145,0,0,1-.34-.3,1.116,1.116,0,0,1-.085-.638l.128-2.553a7.348,7.348,0,0,0-6.382,3.957c-.255.553-.553,1.191-1.106,1.4a1.49,1.49,0,0,1-1.744-1.064,5.046,5.046,0,0,1,.043-2.255c1.149-6.255.893-12.679,1.617-18.976a4.114,4.114,0,0,1,.638-2C157.381,658.352,158.019,657.926,158.1,657.33Z" transform="translate(-84.142 -377.157)" fill="#3f3d56"/>
    <path id="Path_240" data-name="Path 240" d="M348.584,703.205a16.23,16.23,0,0,1,1.021,1.362,1.206,1.206,0,0,1-.213,1.532,1.4,1.4,0,0,1-.936.085,30.965,30.965,0,0,1-16.806-7.616,11.385,11.385,0,0,1-2.042-2.255c-.553-.851-1.021-1.829-1.957-2.212a33.2,33.2,0,0,0-.851,7.4c0,1.617.213,3.531,1.574,4.467a6.3,6.3,0,0,0,1.744.723l2.936.808a2.985,2.985,0,0,0,1.617.17c.34-.085.638-.3,1.021-.383a2.663,2.663,0,0,1,1.149.128l2.51.723a17.4,17.4,0,0,1,2.51.851c.723.34,1.4.766,2.085,1.149a22.722,22.722,0,0,0,3.659,1.489l4.425,1.532a16.528,16.528,0,0,0,3.787.979c.893.085,1.787,0,2.68.17.681.127,1.319.34,2,.426a5.264,5.264,0,0,0,3.148-.936,2.719,2.719,0,0,0,.894-.809c.638-.978.085-2.3-.553-3.319a13.086,13.086,0,0,0-4.51-4.638c-.766-.425-1.617-.723-2.383-1.149-2.255-1.106-4-2.936-6.127-4.17C348.925,698.567,347.648,701.631,348.584,703.205Z" transform="translate(-187.741 -398.78)" fill="#3f3d56"/>
    <path id="Path_241" data-name="Path 241" d="M189.747,266.544a18.6,18.6,0,0,1-7.871,3.063,39.305,39.305,0,0,1-4.467.255,112.387,112.387,0,0,1-18.508-1.532c2.425-2.68,4.893-5.531,5.829-9.063a14.124,14.124,0,0,0,.255-5.659,41.707,41.707,0,0,0-1.744-7.148,48.145,48.145,0,0,0,7.829-.213c1.489-.17,5.106-1.489,6.382-.468,1.191.936.3,4.3.255,5.871v.17a19.042,19.042,0,0,0,1.489,6.85C181.152,262.843,185.152,266.247,189.747,266.544Z" transform="translate(-91.278 -140.988)" fill="#fbbebe"/>
    <path id="Path_242" data-name="Path 242" d="M183.709,251.553a15.554,15.554,0,0,1-12.764,1.957,41.7,41.7,0,0,0-1.744-7.148,48.145,48.145,0,0,0,7.829-.213c1.489-.17,5.106-1.489,6.382-.468C184.645,246.66,183.751,250.021,183.709,251.553Z" transform="translate(-97.195 -140.93)" opacity="0.1"/>
    <circle id="Ellipse_56" data-name="Ellipse 56" cx="15.572" cy="15.572" r="15.572" transform="translate(62.432 81.308)" fill="#fbbebe"/>
    <path id="Path_243" data-name="Path 243" d="M229.779,336.186a7.263,7.263,0,0,1-3.531,6.254,13.622,13.622,0,0,1-3.829,1.319c-7.105,1.7-14.423,3.106-21.742,2.68a11.276,11.276,0,0,1-4.6-.979,5.038,5.038,0,0,1-2.851-3.574,3.649,3.649,0,0,0-.213-1.149,3.9,3.9,0,0,0-1.064-.979,4.368,4.368,0,0,1-1.659-4.382c-.893.383-1.83-.511-2.255-1.362s-.766-1.957-1.659-2.3a9.856,9.856,0,0,0-1.957-.255c-1.021-.255-1.659-1.276-2.383-2.042-1.489-1.574-3.574-2.383-5.489-3.361-5.744-2.893-10.424-7.446-14.977-11.956a47.089,47.089,0,0,1-6.425-7.233,26.186,26.186,0,0,1-1.4-2.34,58.451,58.451,0,0,1-3.574-8.212,9.532,9.532,0,0,1-.936-4.68c.043-.128.043-.3.085-.425a8.916,8.916,0,0,1,1.4-2.851c1.574-2.34,3.659-4.51,6.382-5.233s5.446.17,8.212.723a20.713,20.713,0,0,0,2.766.425c2.936.213,5.829-.6,8.68-1.362l3.106-.851c1.532-.425,2.34-2.3,3.872-2.638a4.949,4.949,0,0,1,2.085.128,29.853,29.853,0,0,1,9.19,2.978,10.278,10.278,0,0,1,1.787,1.234,11.025,11.025,0,0,1,4.127,6.127c.638,2.68.043,5.574.681,8.254a17.974,17.974,0,0,0,3.191,6.042l7.616,10.85a71.564,71.564,0,0,0,5.574,7.276C222.078,326.783,229.651,330.144,229.779,336.186Z" transform="translate(-85.699 -160.509)" fill="#38d39f"/>
    <path id="Path_244" data-name="Path 244" d="M284.077,155.491a12.917,12.917,0,0,1,1.361-4.34,9.506,9.506,0,0,1,2-2.127,13.019,13.019,0,0,1,4.3-2.68,5.372,5.372,0,0,1,4.893.553,6.482,6.482,0,0,1,2.127,4.51,11.04,11.04,0,0,1-1.149,6.808c-1.319,2.3-3.616,3.829-5.531,5.659a21.867,21.867,0,0,0-3.617,4.51,13.252,13.252,0,0,1-1.659,2.383,3.154,3.154,0,0,1-2.6,1.064,4.529,4.529,0,0,1-2.127-1.234c-.808-.681-2.893-1.915-2.978-3.021-.043-.893,1.617-2.893,2-3.744A35.535,35.535,0,0,0,284.077,155.491Z" transform="translate(-160.335 -83.884)" fill="#fbbebe"/>
    <path id="Path_245" data-name="Path 245" d="M283.567,485.338c-1.957,3.617-4.085,7.148-5.829,10.85-1.021,2.17-1.915,4.425-3.021,6.51-1.234,2.3-2.766,4.467-4.042,6.723-3.234,5.744-5.063,12.253-6.722,18.636a36.962,36.962,0,0,1-13.275-4.68c-.255-.17-.553-.34-.808-.511a9.31,9.31,0,0,1-2.68-2.936c1.532-5.829,3.148-11.785,6.3-16.934,1.021-1.7,2.212-3.276,3.234-4.893,3.063-4.808,3.7-10.892,7.19-15.359a2.682,2.682,0,0,0,0-3.149c-.426-.511-1.064-1.021-.936-1.659.085-.468.6-.893.383-1.362a1.236,1.236,0,0,0-.468-.468c-.6-.553-.511-1.489-.553-2.3-.128-2.042-1.361-3.829-2.553-5.489a4.248,4.248,0,0,0-.936-1.021,7.483,7.483,0,0,0-1.021-.468c-1.106-.681-1.021-2.34-1.574-3.531-.681-1.574-2.468-2.383-3.617-3.7-1.489-1.617-1.829-3.914-3.4-5.361a4.5,4.5,0,0,0-.511-.425,26.168,26.168,0,0,1,.894,7.488c.17,8.68-2.042,17.657-1.021,26.294.808,6.85-3.4,13.658-9.36,17.061a44.3,44.3,0,0,1-7.318,3.063c-3.744,1.319-7.446,2.68-11.147,4.212-2.6,1.064-5.148,2.212-7.658,3.489a94.173,94.173,0,0,0-9.063,5.021c-3.617,2.3-7.19,4.6-9.743,8.041a8.876,8.876,0,0,1-6.3-3.489,23.544,23.544,0,0,1-3.446-6.552,18.731,18.731,0,0,1-1.659-6.169,1.23,1.23,0,0,1,.723-1.064l17.1-9.062,3.191-1.7c7.02-3.7,14.253-7.148,21.231-10.849.468.128.851-.383.979-.851s.255-1.064.681-1.234c.213-.128.511-.085.681-.3a.677.677,0,0,0,.128-.553c-.213-3.4-2.68-6.51-2.17-9.871.213-1.447.936-2.851.638-4.255a17.377,17.377,0,0,0-1.319-2.681c-.851-2.042,0-4.552-.936-6.552a15.7,15.7,0,0,1-1.234-4.17,28.125,28.125,0,0,0-2.6-8.3,16.135,16.135,0,0,0-2.383-3.617c-.511-.553-1.106-1.064-1.574-1.617-1.489-1.744-2.042-4.127-2.468-6.382-.766-4.127-1.276-8.382-.34-12.466a17.978,17.978,0,0,0,.808-4.212c0-1.872-.851-4.085.468-5.446a4.562,4.562,0,0,1,1.915-.979,57.379,57.379,0,0,1,9.275-1.7l14.3-1.872a13.156,13.156,0,0,0,4.765-1.234,9.581,9.581,0,0,0,4-5.106c2.51,1.83,3.446,5.233,5.446,7.616.979,1.149,2.17,2.085,3.234,3.149a32.507,32.507,0,0,1,3.574,4.425A77.249,77.249,0,0,1,269.1,434.2c1.106,2.383,1.957,4.85,2.851,7.361,3.489,9.743,9.148,18.976,11.53,29.017.6,2.468,2.085,4.68,2.3,7.19C286.077,480.4,284.843,482.955,283.567,485.338Z" transform="translate(-105.066 -233.373)" fill="#3f3d56"/>
    <path id="Path_246" data-name="Path 246" d="M243.111,399a4.488,4.488,0,0,0-.511,2.127c.34-1.574,2.468-2.468,2.638-4,.043-.723-.085-.681-.511-.3C244,397.386,243.706,398.365,243.111,399Z" transform="translate(-139.366 -227.836)" opacity="0.1"/>
    <path id="Path_247" data-name="Path 247" d="M257.519,412.8a3.036,3.036,0,0,0-.979,1.447,3.776,3.776,0,0,0-.213,2.553,1.21,1.21,0,0,0,.511-.894,6.7,6.7,0,0,1,.681-1.489c.255-.425,1.447-1.361,1.447-1.829C258.923,411.908,257.817,412.547,257.519,412.8Z" transform="translate(-147.18 -236.869)" opacity="0.1"/>
    <path id="Path_248" data-name="Path 248" d="M194.865,283.668a15.1,15.1,0,0,1-3.276,2.17c-3.106,1.574-6.51,2.383-9.616,3.914a46.879,46.879,0,0,0-4.467,2.6l-9.233,5.872a10.254,10.254,0,0,0-2.042,1.532c-1.106,1.191-1.106,3.276-2.127,4.51a6.343,6.343,0,0,1-4.467,2.085,15.11,15.11,0,0,1-4.978-.851c-.979-.3-1.915-.638-2.851-1.021a13.348,13.348,0,0,1-2.723-1.574,7.824,7.824,0,0,1-3.234-5.106,10,10,0,0,1,.553-4.17,18.034,18.034,0,0,1,.979-2.51,8.181,8.181,0,0,1,.766-1.319c2.127-3.021,5.872-4.425,9.488-5.106,1.915-.383,3.829-.6,5.744-.936a20.722,20.722,0,0,0,2.766.425c2.936.213,5.829-.6,8.68-1.362l3.106-.851c1.532-.426,2.34-2.3,3.872-2.638a4.95,4.95,0,0,1,2.085.128,29.855,29.855,0,0,1,9.19,2.978C193.674,282.817,194.269,283.242,194.865,283.668Z" transform="translate(-83.759 -160.451)" opacity="0.1"/>
    <path id="Path_249" data-name="Path 249" d="M202.281,192.5c-.383,3.787-3.574,6.552-5.531,9.786-.936,1.574-1.617,3.319-2.468,4.936a49.715,49.715,0,0,1-3.234,5.148L187.6,217.39a55.35,55.35,0,0,1-6.68,8.424c-4.51.766-8.339,4.127-12.637,5.786-3.446,1.319-7.19,1.489-10.807,2.17s-7.361,2.127-9.488,5.106a13.1,13.1,0,0,0-1.787,3.829,9.915,9.915,0,0,0-.553,4.17,7.824,7.824,0,0,0,3.234,5.106,18.024,18.024,0,0,0,5.574,2.6,15.3,15.3,0,0,0,4.978.851,5.879,5.879,0,0,0,4.467-2.085c1.021-1.361,1.021-3.361,2.127-4.51a9.163,9.163,0,0,1,2.042-1.532l9.233-5.872c1.447-.936,2.936-1.787,4.467-2.6,3.106-1.532,6.51-2.34,9.616-3.914s5.957-4.127,6.595-7.531c1.872-10.467,9.105-19.274,15.317-27.911-.213-.043-.128-.511-.213-.681a8.809,8.809,0,0,0-4.553-4.553A29.064,29.064,0,0,0,202.281,192.5Z" transform="translate(-83.645 -110.597)" fill="#38d39f"/>
    <path id="Path_250" data-name="Path 250" d="M147.118,182.921a5.758,5.758,0,0,0-.638-3.276c-1.021-1.7-3.191-2.3-5.106-2.723-1.872-.383-3.744-.723-5.616-.979a13.31,13.31,0,0,0-4.68-.085c-2.127.468-3.872,1.872-5.829,2.766a39.323,39.323,0,0,1-7.4,1.872c-2.468.6-5.021,1.532-6.595,3.574a12.06,12.06,0,0,0-2,5.4c-2.936,15.913.213,32.208.808,48.376.255,6.3-.043,13.019-3.659,18.21l10.467-.255c2.68-.085,5.574-.213,7.659-1.872,1.872-1.447,2.723-3.787,3.531-6a18.277,18.277,0,0,0,1.319-5.4c.17-3.787-2-7.531-1.276-11.275.511-2.808,2.553-5.063,4.723-6.893s4.6-3.4,6.34-5.659c3.148-3.957,3.744-9.4,3.361-14.423-.213-2.978-.766-6-.511-8.977a11.25,11.25,0,0,1,2.383-6.3C146.1,186.963,146.947,185.73,147.118,182.921Z" transform="translate(-61.115 -100.933)" fill="#3f3d56"/>
    <path id="Path_251" data-name="Path 251" d="M146.437,181.38c-1.021-1.659-3.106-2.3-5.021-2.68a5.1,5.1,0,0,1,2.468,1.957,5.553,5.553,0,0,1,.638,3.276c-.128,2.808-1.021,4.042-2.68,6.042a11.251,11.251,0,0,0-2.383,6.3,52.974,52.974,0,0,0,.511,8.977c.383,5.063-.213,10.467-3.361,14.423-1.744,2.212-4.17,3.829-6.34,5.659s-4.212,4.085-4.723,6.893c-.681,3.744,1.447,7.488,1.276,11.275a20.074,20.074,0,0,1-1.319,5.4c-.808,2.212-1.659,4.552-3.531,6-2.127,1.659-4.978,1.787-7.659,1.872l-7.4.213c-.17.255-.34.553-.511.808l10.467-.255c2.68-.085,5.574-.213,7.658-1.872,1.872-1.447,2.723-3.787,3.531-6a18.274,18.274,0,0,0,1.319-5.4c.17-3.787-2-7.531-1.276-11.275.511-2.808,2.553-5.063,4.723-6.893s4.6-3.4,6.34-5.659c3.148-3.957,3.744-9.4,3.361-14.423-.213-2.978-.766-6-.511-8.977a11.25,11.25,0,0,1,2.383-6.3c1.659-2,2.553-3.234,2.68-6.042A5.5,5.5,0,0,0,146.437,181.38Z" transform="translate(-61.115 -102.668)" opacity="0.1"/>
    <path id="Path_252" data-name="Path 252" d="M355.812,528.244,336.58,575.131a9.312,9.312,0,0,1-2.68-2.936c1.532-5.829,3.149-11.786,6.3-16.934,1.021-1.7,2.212-3.276,3.234-4.893,3.063-4.808,3.7-10.892,7.19-15.359a2.682,2.682,0,0,0,0-3.148c-.425-.511-1.064-1.021-.936-1.659.085-.468.6-.893.383-1.361a1.235,1.235,0,0,0-.468-.468c-.6-.553-.511-1.489-.553-2.3-.128-2.042-1.362-3.829-2.553-5.489a4.248,4.248,0,0,0-.936-1.021,7.469,7.469,0,0,0-1.021-.468c-1.106-.681-1.021-2.34-1.574-3.531-.681-1.574-2.468-2.383-3.617-3.7-1.489-1.617-1.829-3.914-3.4-5.361l-.128-.34L337.3,497.1Z" transform="translate(-191.82 -285.598)" opacity="0.1"/>
  </g>
</svg>
