<svg xmlns="http://www.w3.org/2000/svg" width="378.577" height="424.387" viewBox="0 0 378.577 424.387">
  <g id="Group_274" data-name="Group 274" transform="translate(-1185.726 -1581.87)">
    <g id="Leaves" transform="translate(1185.726 1866.628) rotate(-59)" opacity="0.8">
      <path id="Path_202" data-name="Path 202" d="M1008.853,237.252s-15-6.107-62.665,15.8-53.5,19.118-65.852,15.8-19.251-4.116-32.395-22.437c0,0-9.293-50.584-18.322-58.417s-47.53,4.514-47.53,4.514-45.937,10.621-54.832-50.849c0,0,6.24-46.335-2.257-60.541,0,0,17.127,7.435,45.273-4.514s50.716,12.878,50.716,12.878,7.17,18.454,6.373,29.341,3.718,15.135,17.26,9.825c0,0,6.638-9.426-2.788-24.96s-16.065-27.084-13.409-39.166,10.09-28.81,34.253-37.174,56.956-9.957,72.622-16.463S955.082,0,955.082,0s-9.692,9.692,13.144,50.849,8.231,58.948,8.231,58.948-12.081,28.943-65.719,26.553c0,0-51.647,1.859-23.5,23.765,0,0,18.057-3.717,45.008-12.214s46.335,26.819,51.248,51.38C988.274,223.843,1008.853,237.252,1008.853,237.252Z" transform="translate(-725)" fill="#38d39f"/>
      <path id="Path_203" data-name="Path 203" d="M896.559,23.433l.265-.133c2.124,7.833-20.977,39.431-40.759,64.391l-.265-.133C883.813,52.376,898.285,29.54,896.559,23.433Z" transform="translate(-682.143 7.634)" fill="#444053"/>
      <path id="Path_204" data-name="Path 204" d="M870.027,71.4l.133.266c-15.8,20.048-35.581,43.945-51.381,61.6-1.46,1.726-3.053,3.452-4.381,5.311l-.4-.4c1.46-1.859,2.921-3.585,4.514-5.311C834.18,115.213,854.361,91.448,870.027,71.4Z" transform="translate(-695.839 23.395)" fill="#444053"/>
      <path id="Path_205" data-name="Path 205" d="M823.243,121.4l.265.531c-28.81,35.98-30.8,91.874-30.8,92.4l-6.107-6.9C786.733,206.768,794.168,157.645,823.243,121.4Z" transform="translate(-704.817 39.777)" fill="#444053"/>
      <path id="Path_206" data-name="Path 206" d="M968.974,193.1s-33.988-17.658-60.541-11.285-86.165-22.437-86.165-22.437-25.358-10.356-30.4-22.039c0,0-17.392-18.454-18.322-27.881S755.619,76,744.6,75.2" transform="translate(-718.578 24.64)" fill="none" stroke="#444053" stroke-miterlimit="10" stroke-width="1"/>
      <path id="Path_207" data-name="Path 207" d="M913.675,182.96S896.548,171.409,898.54,158" transform="translate(-668.192 51.77)" fill="none" stroke="#444053" stroke-miterlimit="10" stroke-width="1"/>
      <path id="Path_208" data-name="Path 208" d="M896.751,198.913s-24.561-8.9-26.951-43.813" transform="translate(-677.556 50.819)" fill="none" stroke="#444053" stroke-miterlimit="10" stroke-width="1"/>
      <path id="Path_209" data-name="Path 209" d="M864.55,208.072s-23.366-19.384-15.666-53.372" transform="translate(-684.919 50.688)" fill="none" stroke="#444053" stroke-miterlimit="10" stroke-width="1"/>
      <path id="Path_210" data-name="Path 210" d="M826.337,201s-15.533-32.66-1.726-53.9" transform="translate(-694.235 48.198)" fill="none" stroke="#444053" stroke-miterlimit="10" stroke-width="1"/>
      <path id="Path_211" data-name="Path 211" d="M917.468,147.8s-17.658,5.576-13.941,15" transform="translate(-666.673 48.428)" fill="none" stroke="#444053" stroke-miterlimit="10" stroke-width="1"/>
      <path id="Path_212" data-name="Path 212" d="M903.8,123.6s-23.765,7.568-24.3,41.025" transform="translate(-674.377 40.498)" fill="none" stroke="#444053" stroke-miterlimit="10" stroke-width="1"/>
      <path id="Path_213" data-name="Path 213" d="M877.869,117.7s-21.641,26.686-20.048,50.849" transform="translate(-681.508 38.565)" fill="none" stroke="#444053" stroke-miterlimit="10" stroke-width="1"/>
      <path id="Path_214" data-name="Path 214" d="M849.082,125.6s-21.508,20.446-18.72,31.864" transform="translate(-690.56 41.154)" fill="none" stroke="#444053" stroke-miterlimit="10" stroke-width="1"/>
      <path id="Path_215" data-name="Path 215" d="M840.369,120.954s-20.048,3.585-22.969-3.054" transform="translate(-694.724 38.631)" fill="none" stroke="#444053" stroke-miterlimit="10" stroke-width="1"/>
      <path id="Path_216" data-name="Path 216" d="M815,101.9s10.223,13.409,12.745,10.488" transform="translate(-695.511 33.388)" fill="none" stroke="#444053" stroke-miterlimit="10" stroke-width="1"/>
      <path id="Path_217" data-name="Path 217" d="M906.134,98.351S855.418,102.068,844,86.8" transform="translate(-686.009 28.441)" fill="none" stroke="#444053" stroke-miterlimit="10" stroke-width="1"/>
      <path id="Path_218" data-name="Path 218" d="M807,50.8s23.766,50.982,41.025,57.487" transform="translate(-698.132 16.645)" fill="none" stroke="#444053" stroke-miterlimit="10" stroke-width="1"/>
      <path id="Path_219" data-name="Path 219" d="M825.8,32.5s14.6,46.866,32.661,61.6" transform="translate(-691.972 10.649)" fill="none" stroke="#444053" stroke-miterlimit="10" stroke-width="1"/>
      <path id="Path_220" data-name="Path 220" d="M922.1,66.333S883.6,82.8,860.5,66.2" transform="translate(-680.603 21.691)" fill="none" stroke="#444053" stroke-miterlimit="10" stroke-width="0.75"/>
      <path id="Path_221" data-name="Path 221" d="M851.6,25s8.762,34.519,20.711,42.883" transform="translate(-683.519 8.191)" fill="none" stroke="#444053" stroke-miterlimit="10" stroke-width="0.75"/>
      <path id="Path_222" data-name="Path 222" d="M909.84,37.2S888.2,45.431,880.1,39.059" transform="translate(-674.181 12.189)" fill="none" stroke="#444053" stroke-miterlimit="10" stroke-width="0.75"/>
      <path id="Path_223" data-name="Path 223" d="M803.032,110.4s0,30.138-8.232,32.262" transform="translate(-702.13 36.173)" fill="none" stroke="#444053" stroke-miterlimit="10" stroke-width="1"/>
      <path id="Path_224" data-name="Path 224" d="M750.6,143.14s32.528,2.788,47.53-13.94" transform="translate(-716.612 42.333)" fill="none" stroke="#444053" stroke-miterlimit="10" stroke-width="1"/>
      <path id="Path_225" data-name="Path 225" d="M802.007,83.6s-7.833,30.536-29.607,38.768" transform="translate(-709.469 27.392)" fill="none" stroke="#444053" stroke-miterlimit="10" stroke-width="1"/>
      <path id="Path_226" data-name="Path 226" d="M735.9,118.547s22.968,7.966,42.884-12.347" transform="translate(-721.428 34.797)" fill="none" stroke="#444053" stroke-miterlimit="10" stroke-width="1"/>
      <path id="Path_227" data-name="Path 227" d="M779.43,63.8s-2.124,25.889-16.33,37.971" transform="translate(-712.517 20.904)" fill="none" stroke="#444053" stroke-miterlimit="10" stroke-width="1"/>
      <path id="Path_228" data-name="Path 228" d="M736.6,87.307s19.118.133,23.633-6.107" transform="translate(-721.199 26.606)" fill="none" stroke="#444053" stroke-miterlimit="10" stroke-width="1"/>
    </g>
    <g id="leaves-2" data-name="leaves" transform="matrix(0.978, 0.208, -0.208, 0.978, 1322.031, 1574.629)" opacity="0.6">
      <path id="Path_114" data-name="Path 114" d="M200.062,190.69s-14.636-25.92-36.67-33.371a45.137,45.137,0,0,1-22.833-17.085A79.4,79.4,0,0,1,133.8,128.1" transform="translate(-118.033 -87.416)" fill="none" stroke="#535461" stroke-miterlimit="10" stroke-width="2"/>
      <path id="Path_115" data-name="Path 115" d="M106.158,109.452c2.5,2.448,14.21,4.95,14.21,4.95s-2.874-11.6-5.376-14.051a6.323,6.323,0,1,0-8.941,8.941c0,.053.053.106.106.16Z" transform="translate(-104.175 -73.558)" fill="#38d39f"/>
      <path id="Path_116" data-name="Path 116" d="M115.824,147.544c3.406.692,14.636-3.566,14.636-3.566s-8.729-8.2-12.135-8.888a6.344,6.344,0,0,0-7.451,5,6.243,6.243,0,0,0,4.95,7.451Z" transform="translate(-107.242 -90.627)" fill="#38d39f"/>
      <path id="Path_117" data-name="Path 117" d="M158.094,190.534c3.3-1.118,10.8-10.432,10.8-10.432s-11.656-2.661-14.956-1.543a6.337,6.337,0,1,0,4.151,11.975Z" transform="translate(-125.455 -110.891)" fill="#38d39f"/>
      <path id="Path_118" data-name="Path 118" d="M200.559,214.87c3.459-.585,12.454-8.462,12.454-8.462S202,201.83,198.537,202.362a6.335,6.335,0,0,0,2.022,12.507Z" transform="translate(-145.833 -122.133)" fill="#38d39f"/>
      <path id="Path_119" data-name="Path 119" d="M154.967,129.333c0,3.513-6.333,13.625-6.333,13.625s-6.334-10.112-6.334-13.625a6.334,6.334,0,0,1,12.667,0Z" transform="translate(-122.009 -85.03)" fill="#38d39f"/>
      <path id="Path_120" data-name="Path 120" d="M203.483,157.067c-1.064,3.353-10.112,11.124-10.112,11.124s-3.034-11.6-1.969-14.9a6.329,6.329,0,0,1,12.082,3.779Z" transform="translate(-144.871 -97.116)" fill="#38d39f"/>
      <path id="Path_121" data-name="Path 121" d="M246.132,192.979c-.479,3.459-8.09,12.667-8.09,12.667s-4.95-10.911-4.471-14.37a6.338,6.338,0,1,1,12.561,1.7Z" transform="translate(-164.688 -114.4)" fill="#38d39f"/>
      <path id="Path_122" data-name="Path 122" d="M106.158,109.452c2.5,2.448,14.21,4.95,14.21,4.95s-2.874-11.6-5.376-14.051a6.323,6.323,0,1,0-8.941,8.941c0,.053.053.106.106.16Z" transform="translate(-104.175 -73.558)" opacity="0.25"/>
      <path id="Path_123" data-name="Path 123" d="M115.824,147.544c3.406.692,14.636-3.566,14.636-3.566s-8.729-8.2-12.135-8.888a6.344,6.344,0,0,0-7.451,5,6.243,6.243,0,0,0,4.95,7.451Z" transform="translate(-107.242 -90.627)" opacity="0.25"/>
      <path id="Path_124" data-name="Path 124" d="M158.094,190.534c3.3-1.118,10.8-10.432,10.8-10.432s-11.656-2.661-14.956-1.543a6.337,6.337,0,1,0,4.151,11.975Z" transform="translate(-125.455 -110.891)" opacity="0.25"/>
      <path id="Path_125" data-name="Path 125" d="M200.559,214.87c3.459-.585,12.454-8.462,12.454-8.462S202,201.83,198.537,202.362a6.335,6.335,0,0,0,2.022,12.507Z" transform="translate(-145.833 -122.133)" opacity="0.25"/>
      <path id="Path_126" data-name="Path 126" d="M154.967,129.333c0,3.513-6.333,13.625-6.333,13.625s-6.334-10.112-6.334-13.625a6.334,6.334,0,0,1,12.667,0Z" transform="translate(-122.009 -85.03)" opacity="0.25"/>
      <path id="Path_127" data-name="Path 127" d="M203.483,157.067c-1.064,3.353-10.112,11.124-10.112,11.124s-3.034-11.6-1.969-14.9a6.329,6.329,0,0,1,12.082,3.779Z" transform="translate(-144.871 -97.116)" opacity="0.25"/>
      <path id="Path_128" data-name="Path 128" d="M246.132,192.979c-.479,3.459-8.09,12.667-8.09,12.667s-4.95-10.911-4.471-14.37a6.338,6.338,0,1,1,12.561,1.7Z" transform="translate(-164.688 -114.4)" opacity="0.25"/>
      <path id="Path_129" data-name="Path 129" d="M225.834,170.939s-2.874-29.645-20.012-45.4a44.7,44.7,0,0,1-13.944-24.855A75.068,75.068,0,0,1,190.6,86.9" transform="translate(-144.602 -68.144)" fill="none" stroke="#535461" stroke-miterlimit="10" stroke-width="2"/>
      <path id="Path_130" data-name="Path 130" d="M170.087,60.356c1.331,3.247,10.964,10.272,10.964,10.272s2.076-11.762.8-15.009a6.34,6.34,0,1,0-11.762,4.737Z" transform="translate(-134.787 -51.659)" fill="#38d39f"/>
      <path id="Path_131" data-name="Path 131" d="M163.524,99.059c2.874,2.022,14.8,2.661,14.8,2.661s-4.63-11.017-7.5-13.04a6.342,6.342,0,0,0-7.292,10.378Z" transform="translate(-130.673 -68.434)" fill="#38d39f"/>
      <path id="Path_132" data-name="Path 132" d="M184.785,155.391c3.46.266,14.1-5.163,14.1-5.163s-9.58-7.132-13.04-7.451a6.329,6.329,0,1,0-1.064,12.614Z" transform="translate(-139.159 -94.269)" fill="#38d39f"/>
      <path id="Path_133" data-name="Path 133" d="M213.474,194.831c3.406.852,14.8-2.714,14.8-2.714s-8.25-8.675-11.6-9.58a6.329,6.329,0,0,0-3.779,12.082,4.043,4.043,0,0,1,.586.213Z" transform="translate(-152.946 -112.74)" fill="#38d39f"/>
      <path id="Path_134" data-name="Path 134" d="M206.6,98.147c-1.437,3.193-11.337,9.9-11.337,9.9s-1.7-11.815-.266-15.062a6.35,6.35,0,1,1,11.6,5.163Z" transform="translate(-146.388 -69.225)" fill="#38d39f"/>
      <path id="Path_135" data-name="Path 135" d="M237.385,143.173c-2.289,2.608-13.785,6.067-13.785,6.067s1.916-11.815,4.258-14.423a6.336,6.336,0,1,1,9.527,8.356Z" transform="translate(-160.039 -89.555)" fill="#38d39f"/>
      <path id="Path_136" data-name="Path 136" d="M263.506,193.29c-1.81,2.98-12.507,8.3-12.507,8.3s-.106-11.975,1.756-14.956a6.322,6.322,0,1,1,10.751,6.653Z" transform="translate(-172.855 -113.381)" fill="#38d39f"/>
    </g>
  </g>
</svg>
