<svg xmlns="http://www.w3.org/2000/svg" width="1033.599" height="1012.649" viewBox="0 0 1033.599 1012.649">
  <g id="headerbag" transform="translate(-564.666 273.258)" opacity="0.997">
    <path id="Path_110" data-name="Path 110" d="M-19.848,398.223,813,0,789.18,594.635,195.727,876.211,29.507,791.924Z" transform="translate(671.233 -160.11) rotate(-8)" fill="#54b192"/>
    <ellipse id="Ellipse_29" data-name="Ellipse 29" cx="265" cy="261" rx="265" ry="261" transform="matrix(0.996, -0.087, 0.087, 0.996, 564.666, 219.377)" fill="#54b192"/>
    <circle id="Ellipse_30" data-name="Ellipse 30" cx="2.5" cy="2.5" r="2.5" transform="translate(1055 116)" fill="#fff"/>
    <circle id="Ellipse_31" data-name="Ellipse 31" cx="0.5" cy="0.5" r="0.5" transform="translate(1112 158)" fill="#fff"/>
    <circle id="Ellipse_32" data-name="Ellipse 32" cx="0.5" cy="0.5" r="0.5" transform="translate(1112 158)" fill="#fff"/>
    <circle id="Ellipse_33" data-name="Ellipse 33" cx="0.5" cy="0.5" r="0.5" transform="translate(1022 178)" fill="#fff"/>
    <circle id="Ellipse_34" data-name="Ellipse 34" cx="0.5" cy="0.5" r="0.5" transform="translate(952 148)" fill="#fff"/>
    <circle id="Ellipse_35" data-name="Ellipse 35" cx="0.5" cy="0.5" r="0.5" transform="translate(1253 108)" fill="#fff"/>
    <circle id="Ellipse_36" data-name="Ellipse 36" cx="0.5" cy="0.5" r="0.5" transform="translate(1323 199)" fill="#fff"/>
    <circle id="Ellipse_37" data-name="Ellipse 37" cx="0.5" cy="0.5" r="0.5" transform="translate(1193 109)" fill="#fff"/>
    <circle id="Ellipse_39" data-name="Ellipse 39" cx="0.5" cy="0.5" r="0.5" transform="translate(883 180)" fill="#fff"/>
    <circle id="Ellipse_40" data-name="Ellipse 40" cx="0.5" cy="0.5" r="0.5" transform="translate(653 360)" fill="#fff"/>
    <circle id="Ellipse_41" data-name="Ellipse 41" cx="0.5" cy="0.5" r="0.5" transform="translate(963 210)" fill="#fff"/>
    <circle id="Ellipse_42" data-name="Ellipse 42" cx="0.5" cy="0.5" r="0.5" transform="translate(1283 320)" fill="#fff"/>
    <circle id="Ellipse_43" data-name="Ellipse 43" cx="0.5" cy="0.5" r="0.5" transform="translate(1313 70)" fill="#fff"/>
    <circle id="Ellipse_44" data-name="Ellipse 44" cx="2.5" cy="2.5" r="2.5" transform="translate(1317 28)" fill="#fff"/>
    <circle id="Ellipse_45" data-name="Ellipse 45" cx="1.5" cy="1.5" r="1.5" transform="translate(1217 208)" fill="#fff"/>
    <circle id="Ellipse_46" data-name="Ellipse 46" cx="1.5" cy="1.5" r="1.5" transform="translate(1280 378)" fill="#fff"/>
    <circle id="Ellipse_38" data-name="Ellipse 38" cx="0.5" cy="0.5" r="0.5" transform="translate(1103 19)" fill="#fff"/>
  </g>
</svg>
